<?xml version="1.0" standalone="no"?>
<!DOCTYPE svg PUBLIC "-//W3C//DTD SVG 20010904//EN"
 "http://www.w3.org/TR/2001/REC-SVG-20010904/DTD/svg10.dtd">
<svg version="1.0" xmlns="http://www.w3.org/2000/svg"
 width="2048.000000pt" height="2048.000000pt" viewBox="0 0 2048.000000 2048.000000"
 preserveAspectRatio="xMidYMid meet">
<metadata>
Created by potrace 1.14, written by Peter Selinger 2001-2017
</metadata>
<g transform="translate(0.000000,2048.000000) scale(0.100000,-0.100000)"
fill="#000000" stroke="none">
<path d="M0 10240 l0 -10240 10240 0 10240 0 0 10240 0 10240 -10240 0 -10240
0 0 -10240z m9713 8053 c-13 -2 -33 -2 -45 0 -13 2 -3 4 22 4 25 0 35 -2 23
-4z m1045 0 c-10 -2 -28 -2 -40 0 -13 2 -5 4 17 4 22 1 32 -1 23 -4z m-1155
-10 c-13 -2 -33 -2 -45 0 -13 2 -3 4 22 4 25 0 35 -2 23 -4z m1285 0 c-16 -2
-40 -2 -55 0 -16 2 -3 4 27 4 30 0 43 -2 28 -4z m-1380 -10 c-10 -2 -28 -2
-40 0 -13 2 -5 4 17 4 22 1 32 -1 23 -4z m1485 0 c-13 -2 -35 -2 -50 0 -16 2
-5 4 22 4 28 0 40 -2 28 -4z m-1565 -10 c-10 -2 -28 -2 -40 0 -13 2 -5 4 17 4
22 1 32 -1 23 -4z m1846 -18 c207 -26 371 -52 541 -86 135 -27 597 -140 592
-145 -2 -2 -69 11 -148 30 -352 85 -770 162 -1099 205 -80 10 -131 19 -115 20
17 0 119 -10 229 -24z m-1936 8 c-10 -2 -28 -2 -40 0 -13 2 -5 4 17 4 22 1 32
-1 23 -4z m-80 -10 c-10 -2 -26 -2 -35 0 -10 3 -2 5 17 5 19 0 27 -2 18 -5z
m-80 -10 c-10 -2 -26 -2 -35 0 -10 3 -2 5 17 5 19 0 27 -2 18 -5z m-65 -10
c-7 -2 -21 -2 -30 0 -10 3 -4 5 12 5 17 0 24 -2 18 -5z m-70 -10 c-7 -2 -21
-2 -30 0 -10 3 -4 5 12 5 17 0 24 -2 18 -5z m-60 -10 c-7 -2 -21 -2 -30 0 -10
3 -4 5 12 5 17 0 24 -2 18 -5z m-70 -10 c-7 -2 -21 -2 -30 0 -10 3 -4 5 12 5
17 0 24 -2 18 -5z m-60 -10 c-7 -2 -19 -2 -25 0 -7 3 -2 5 12 5 14 0 19 -2 13
-5z m-50 -10 c-7 -2 -21 -2 -30 0 -10 3 -4 5 12 5 17 0 24 -2 18 -5z m-60 -10
c-7 -2 -21 -2 -30 0 -10 3 -4 5 12 5 17 0 24 -2 18 -5z m-60 -10 c-7 -2 -19
-2 -25 0 -7 3 -2 5 12 5 14 0 19 -2 13 -5z m-60 -10 c-7 -2 -19 -2 -25 0 -7 3
-2 5 12 5 14 0 19 -2 13 -5z m-50 -10 c-7 -2 -19 -2 -25 0 -7 3 -2 5 12 5 14
0 19 -2 13 -5z m-46 -9 c-3 -3 -12 -4 -19 -1 -8 3 -5 6 6 6 11 1 17 -2 13 -5z
m-40 -10 c-3 -3 -12 -4 -19 -1 -8 3 -5 6 6 6 11 1 17 -2 13 -5z m-57 -14 c-34
-11 -60 -11 -35 0 11 5 29 8 40 8 16 0 15 -2 -5 -8z m-80 -20 c-34 -11 -60
-11 -35 0 11 5 29 8 40 8 16 0 15 -2 -5 -8z m-63 -16 c-3 -3 -12 -4 -19 -1 -8
3 -5 6 6 6 11 1 17 -2 13 -5z m-40 -10 c-3 -3 -12 -4 -19 -1 -8 3 -5 6 6 6 11
1 17 -2 13 -5z m-40 -10 c-3 -3 -12 -4 -19 -1 -8 3 -5 6 6 6 11 1 17 -2 13 -5z
m-52 -14 c-11 -5 -27 -9 -35 -9 -9 0 -8 4 5 9 11 5 27 9 35 9 9 0 8 -4 -5 -9z
m-58 -16 c-3 -3 -12 -4 -19 -1 -8 3 -5 6 6 6 11 1 17 -2 13 -5z m-52 -14 c-11
-5 -27 -9 -35 -9 -9 0 -8 4 5 9 11 5 27 9 35 9 9 0 8 -4 -5 -9z m4402 4 c-3
-3 -12 -4 -19 -1 -8 3 -5 6 6 6 11 1 17 -2 13 -5z m40 -10 c-3 -3 -12 -4 -19
-1 -8 3 -5 6 6 6 11 1 17 -2 13 -5z m-4512 -14 c-11 -5 -27 -9 -35 -9 -9 0 -8
4 5 9 11 5 27 9 35 9 9 0 8 -4 -5 -9z m4585 -5 c19 -7 28 -13 20 -13 -8 0 -31
6 -50 13 -19 7 -28 13 -20 13 8 0 31 -6 50 -13z m-4655 -15 c-11 -5 -27 -9
-35 -9 -9 0 -8 4 5 9 11 5 27 9 35 9 9 0 8 -4 -5 -9z m-70 -20 c-27 -12 -43
-12 -25 0 8 5 22 9 30 9 10 0 8 -3 -5 -9z m4855 -5 c19 -7 28 -13 20 -13 -8 0
-31 6 -50 13 -19 7 -28 13 -20 13 8 0 31 -6 50 -13z m-4964 -31 c-38 -13 -71
-22 -73 -20 -5 5 107 44 127 44 8 0 -16 -10 -54 -24z m5039 6 c13 -6 15 -9 5
-9 -8 0 -22 4 -30 9 -18 12 -2 12 25 0z m60 -20 c13 -6 15 -9 5 -9 -8 0 -22 4
-30 9 -18 12 -2 12 25 0z m-5215 -25 c-46 -18 -64 -17 -25 0 17 8 37 14 45 14
8 0 -1 -7 -20 -14z m5318 -10 c29 -9 52 -19 49 -21 -5 -5 -127 36 -127 43 0 3
6 3 13 1 6 -3 36 -13 65 -23z m-5418 -24 c-8 -5 -26 -11 -40 -15 -21 -5 -20
-3 5 9 32 15 60 20 35 6z m5520 -11 c18 -12 2 -12 -25 0 -13 6 -15 9 -5 9 8 0
22 -4 30 -9z m-5600 -19 c-8 -5 -26 -11 -40 -15 -21 -5 -20 -3 5 9 32 15 60
20 35 6z m5700 -17 c23 -9 39 -18 37 -20 -2 -3 -24 4 -48 15 -54 24 -45 27 11
5z m-5780 -14 c-8 -5 -19 -10 -25 -10 -5 0 -3 5 5 10 8 5 20 10 25 10 6 0 3
-5 -5 -10z m-50 -20 c-8 -5 -19 -10 -25 -10 -5 0 -3 5 5 10 8 5 20 10 25 10 6
0 3 -5 -5 -10z m5950 -16 c33 -15 59 -29 57 -31 -2 -2 -33 10 -68 26 -80 37
-72 40 11 5z m-6035 -19 c-27 -13 -54 -24 -60 -24 -5 1 13 11 40 24 28 13 55
24 60 24 6 -1 -12 -11 -40 -24z m6135 -25 c8 -5 11 -10 5 -10 -5 0 -17 5 -25
10 -8 5 -10 10 -5 10 6 0 17 -5 25 -10z m-6220 -10 c-8 -5 -19 -10 -25 -10 -5
0 -3 5 5 10 8 5 20 10 25 10 6 0 3 -5 -5 -10z m6280 -15 c14 -8 21 -14 15 -14
-5 0 -21 6 -35 14 -14 8 -20 14 -15 14 6 0 21 -6 35 -14z m-6330 -5 c-8 -5
-19 -10 -25 -10 -5 0 -3 5 5 10 8 5 20 10 25 10 6 0 3 -5 -5 -10z m-70 -30
c-8 -5 -19 -10 -25 -10 -5 0 -3 5 5 10 8 5 20 10 25 10 6 0 3 -5 -5 -10z
m6480 0 c8 -5 11 -10 5 -10 -5 0 -17 5 -25 10 -8 5 -10 10 -5 10 6 0 17 -5 25
-10z m-6540 -25 c-14 -8 -29 -14 -35 -14 -5 0 1 6 15 14 14 8 30 14 35 14 6 0
-1 -6 -15 -14z m6610 -5 c19 -11 31 -19 25 -19 -5 0 -26 8 -45 19 -19 11 -30
19 -25 19 6 0 26 -8 45 -19z m-6660 -14 c0 -2 -7 -7 -16 -10 -8 -3 -12 -2 -9
4 6 10 25 14 25 6z m6940 -121 c127 -63 230 -117 230 -120 0 -5 -459 222 -469
231 -16 15 36 -10 239 -111z m-6990 95 c-8 -5 -19 -10 -25 -10 -5 0 -3 5 5 10
8 5 20 10 25 10 6 0 3 -5 -5 -10z m-81 -34 c-10 -9 -109 -56 -109 -51 0 6 91
54 104 55 5 0 7 -2 5 -4z m-120 -60 c-10 -9 -149 -76 -149 -71 0 6 131 74 144
75 5 0 7 -2 5 -4z m7531 -181 c0 -3 -18 4 -40 15 -22 11 -40 23 -40 25 0 3 18
-4 40 -15 22 -11 40 -23 40 -25z m248 -142 c67 -41 122 -77 122 -79 0 -3 -6
-2 -12 2 -7 4 -58 36 -113 70 -56 34 -123 73 -150 87 -28 14 -59 33 -70 42
-30 24 85 -39 223 -122z m317 -203 c255 -169 463 -327 710 -538 140 -120 195
-171 195 -179 0 -4 -21 13 -47 38 -199 190 -561 472 -863 673 -91 60 -169 113
-175 119 -17 17 14 -2 180 -113z m1234 -1035 c300 -306 496 -535 759 -887 125
-167 388 -555 355 -523 -5 6 -67 95 -137 199 -316 469 -610 826 -1045 1271
-141 143 -213 220 -162 170 51 -49 154 -153 230 -230z m-11639 -179 c0 -2 -8
-10 -17 -17 -16 -13 -17 -12 -4 4 13 16 21 21 21 13z m-40 -40 c0 -2 -8 -10
-17 -17 -16 -13 -17 -12 -4 4 13 16 21 21 21 13z m-50 -59 c0 -2 -17 -19 -37
-38 l-38 -34 34 38 c33 34 41 42 41 34z m-90 -100 c0 -2 -15 -16 -32 -33 l-33
-29 29 33 c28 30 36 37 36 29z m-60 -70 c0 -2 -12 -14 -27 -28 l-28 -24 24 28
c23 25 31 32 31 24z m-153 -184 c-221 -271 -490 -657 -670 -963 -96 -164 -244
-449 -368 -712 -85 -181 -112 -226 -61 -102 182 438 494 982 819 1427 144 198
366 477 379 477 2 0 -42 -57 -99 -127z m13216 -880 c61 -99 80 -133 74 -133
-3 0 -31 44 -63 97 -33 54 -63 103 -67 110 -4 7 -6 13 -3 13 3 0 29 -39 59
-87z m122 -208 c16 -27 24 -45 18 -40 -6 6 -23 33 -38 60 -16 28 -24 46 -18
40 6 -5 23 -32 38 -60z m55 -95 c11 -22 18 -40 15 -40 -2 0 -14 18 -25 40 -11
22 -18 40 -15 40 2 0 14 -18 25 -40z m135 -253 c54 -103 96 -190 94 -192 -2
-1 -50 88 -107 198 -57 111 -99 198 -94 192 6 -5 54 -95 107 -198z m-8092 186
c-161 -2 -425 -2 -585 0 -161 1 -30 2 292 2 322 0 453 -1 293 -2z m324 1 c-3
-3 -12 -4 -19 -1 -8 3 -5 6 6 6 11 1 17 -2 13 -5z m-1424 -11 c-40 -2 -107 -2
-150 0 -43 1 -10 3 72 3 83 0 118 -2 78 -3z m1745 0 c-38 -2 -98 -2 -135 0
-38 2 -7 3 67 3 74 0 105 -1 68 -3z m-2030 -10 c-15 -2 -42 -2 -60 0 -18 2 -6
4 27 4 33 0 48 -2 33 -4z m2210 0 c-15 -2 -42 -2 -60 0 -18 2 -6 4 27 4 33 0
48 -2 33 -4z m-2350 -10 c-16 -2 -40 -2 -55 0 -16 2 -3 4 27 4 30 0 43 -2 28
-4z m2470 0 c-16 -2 -40 -2 -55 0 -16 2 -3 4 27 4 30 0 43 -2 28 -4z m-2585
-10 c-13 -2 -35 -2 -50 0 -16 2 -5 4 22 4 28 0 40 -2 28 -4z m2705 0 c-16 -2
-40 -2 -55 0 -16 2 -3 4 27 4 30 0 43 -2 28 -4z m-2815 -10 c-13 -2 -33 -2
-45 0 -13 2 -3 4 22 4 25 0 35 -2 23 -4z m2920 0 c-13 -2 -33 -2 -45 0 -13 2
-3 4 22 4 25 0 35 -2 23 -4z m-3020 -10 c-13 -2 -33 -2 -45 0 -13 2 -3 4 22 4
25 0 35 -2 23 -4z m3120 0 c-13 -2 -33 -2 -45 0 -13 2 -3 4 22 4 25 0 35 -2
23 -4z m-3215 -10 c-10 -2 -28 -2 -40 0 -13 2 -5 4 17 4 22 1 32 -1 23 -4z
m3325 0 c-13 -2 -33 -2 -45 0 -13 2 -3 4 22 4 25 0 35 -2 23 -4z m-3415 -10
c-10 -2 -28 -2 -40 0 -13 2 -5 4 17 4 22 1 32 -1 23 -4z m3515 0 c-13 -2 -33
-2 -45 0 -13 2 -3 4 22 4 25 0 35 -2 23 -4z m-3605 -10 c-10 -2 -28 -2 -40 0
-13 2 -5 4 17 4 22 1 32 -1 23 -4z m3695 0 c-13 -2 -33 -2 -45 0 -13 2 -3 4
22 4 25 0 35 -2 23 -4z m-3775 -10 c-10 -2 -26 -2 -35 0 -10 3 -2 5 17 5 19 0
27 -2 18 -5z m3870 0 c-10 -2 -28 -2 -40 0 -13 2 -5 4 17 4 22 1 32 -1 23 -4z
m-3950 -10 c-10 -2 -26 -2 -35 0 -10 3 -2 5 17 5 19 0 27 -2 18 -5z m4030 0
c-10 -2 -26 -2 -35 0 -10 3 -2 5 17 5 19 0 27 -2 18 -5z m-4110 -10 c-10 -2
-26 -2 -35 0 -10 3 -2 5 17 5 19 0 27 -2 18 -5z m4200 0 c-10 -2 -28 -2 -40 0
-13 2 -5 4 17 4 22 1 32 -1 23 -4z m-4265 -10 c-7 -2 -21 -2 -30 0 -10 3 -4 5
12 5 17 0 24 -2 18 -5z m4345 0 c-10 -2 -26 -2 -35 0 -10 3 -2 5 17 5 19 0 27
-2 18 -5z m-4420 -10 c-10 -2 -26 -2 -35 0 -10 3 -2 5 17 5 19 0 27 -2 18 -5z
m4490 0 c-10 -2 -26 -2 -35 0 -10 3 -2 5 17 5 19 0 27 -2 18 -5z m-4560 -10
c-10 -2 -26 -2 -35 0 -10 3 -2 5 17 5 19 0 27 -2 18 -5z m4635 0 c-7 -2 -21
-2 -30 0 -10 3 -4 5 12 5 17 0 24 -2 18 -5z m-4700 -10 c-7 -2 -21 -2 -30 0
-10 3 -4 5 12 5 17 0 24 -2 18 -5z m4770 0 c-7 -2 -21 -2 -30 0 -10 3 -4 5 12
5 17 0 24 -2 18 -5z m-4830 -10 c-7 -2 -21 -2 -30 0 -10 3 -4 5 12 5 17 0 24
-2 18 -5z m4895 0 c-10 -2 -26 -2 -35 0 -10 3 -2 5 17 5 19 0 27 -2 18 -5z
m-4965 -10 c-7 -2 -21 -2 -30 0 -10 3 -4 5 12 5 17 0 24 -2 18 -5z m5030 0
c-7 -2 -21 -2 -30 0 -10 3 -4 5 12 5 17 0 24 -2 18 -5z m-5090 -10 c-7 -2 -21
-2 -30 0 -10 3 -4 5 12 5 17 0 24 -2 18 -5z m5155 0 c-10 -2 -26 -2 -35 0 -10
3 -2 5 17 5 19 0 27 -2 18 -5z m-5215 -10 c-7 -2 -21 -2 -30 0 -10 3 -4 5 12
5 17 0 24 -2 18 -5z m5280 0 c-7 -2 -21 -2 -30 0 -10 3 -4 5 12 5 17 0 24 -2
18 -5z m-5340 -10 c-7 -2 -21 -2 -30 0 -10 3 -4 5 12 5 17 0 24 -2 18 -5z
m5400 0 c-7 -2 -21 -2 -30 0 -10 3 -4 5 12 5 17 0 24 -2 18 -5z m-5460 -10
c-7 -2 -21 -2 -30 0 -10 3 -4 5 12 5 17 0 24 -2 18 -5z m5525 0 c-10 -2 -26
-2 -35 0 -10 3 -2 5 17 5 19 0 27 -2 18 -5z m-5585 -10 c-7 -2 -19 -2 -25 0
-7 3 -2 5 12 5 14 0 19 -2 13 -5z m5650 0 c-7 -2 -21 -2 -30 0 -10 3 -4 5 12
5 17 0 24 -2 18 -5z m-5700 -10 c-7 -2 -21 -2 -30 0 -10 3 -4 5 12 5 17 0 24
-2 18 -5z m5760 0 c-7 -2 -21 -2 -30 0 -10 3 -4 5 12 5 17 0 24 -2 18 -5z
m-5820 -10 c-7 -2 -19 -2 -25 0 -7 3 -2 5 12 5 14 0 19 -2 13 -5z m5870 0 c-7
-2 -19 -2 -25 0 -7 3 -2 5 12 5 14 0 19 -2 13 -5z m-5920 -10 c-7 -2 -19 -2
-25 0 -7 3 -2 5 12 5 14 0 19 -2 13 -5z m5980 0 c-7 -2 -21 -2 -30 0 -10 3 -4
5 12 5 17 0 24 -2 18 -5z m-6030 -10 c-7 -2 -19 -2 -25 0 -7 3 -2 5 12 5 14 0
19 -2 13 -5z m6080 0 c-7 -2 -19 -2 -25 0 -7 3 -2 5 12 5 14 0 19 -2 13 -5z
m-6130 -10 c-7 -2 -19 -2 -25 0 -7 3 -2 5 12 5 14 0 19 -2 13 -5z m6180 0 c-7
-2 -19 -2 -25 0 -7 3 -2 5 12 5 14 0 19 -2 13 -5z m-6230 -10 c-7 -2 -19 -2
-25 0 -7 3 -2 5 12 5 14 0 19 -2 13 -5z m6280 0 c-7 -2 -19 -2 -25 0 -7 3 -2
5 12 5 14 0 19 -2 13 -5z m-6330 -10 c-7 -2 -19 -2 -25 0 -7 3 -2 5 12 5 14 0
19 -2 13 -5z m6380 0 c-7 -2 -19 -2 -25 0 -7 3 -2 5 12 5 14 0 19 -2 13 -5z
m-6426 -9 c-3 -3 -12 -4 -19 -1 -8 3 -5 6 6 6 11 1 17 -2 13 -5z m6476 -1 c-7
-2 -19 -2 -25 0 -7 3 -2 5 12 5 14 0 19 -2 13 -5z m-6520 -10 c-7 -2 -19 -2
-25 0 -7 3 -2 5 12 5 14 0 19 -2 13 -5z m6570 0 c-7 -2 -19 -2 -25 0 -7 3 -2
5 12 5 14 0 19 -2 13 -5z m-6620 -10 c-7 -2 -19 -2 -25 0 -7 3 -2 5 12 5 14 0
19 -2 13 -5z m6670 0 c-7 -2 -19 -2 -25 0 -7 3 -2 5 12 5 14 0 19 -2 13 -5z
m-6716 -9 c-3 -3 -12 -4 -19 -1 -8 3 -5 6 6 6 11 1 17 -2 13 -5z m6760 0 c-3
-3 -12 -4 -19 -1 -8 3 -5 6 6 6 11 1 17 -2 13 -5z m-6800 -10 c-3 -3 -12 -4
-19 -1 -8 3 -5 6 6 6 11 1 17 -2 13 -5z m6846 -1 c-7 -2 -19 -2 -25 0 -7 3 -2
5 12 5 14 0 19 -2 13 -5z m-6890 -10 c-7 -2 -19 -2 -25 0 -7 3 -2 5 12 5 14 0
19 -2 13 -5z m6934 1 c-3 -3 -12 -4 -19 -1 -8 3 -5 6 6 6 11 1 17 -2 13 -5z
m-6980 -10 c-3 -3 -12 -4 -19 -1 -8 3 -5 6 6 6 11 1 17 -2 13 -5z m7020 0 c-3
-3 -12 -4 -19 -1 -8 3 -5 6 6 6 11 1 17 -2 13 -5z m-7060 -10 c-3 -3 -12 -4
-19 -1 -8 3 -5 6 6 6 11 1 17 -2 13 -5z m7133 -4 c20 -6 21 -8 5 -8 -11 0 -31
4 -45 8 -20 6 -21 8 -5 8 11 0 31 -4 45 -8z m-7185 -9 c-11 -5 -36 -11 -55
-14 -35 -6 -34 -6 5 8 43 14 84 19 50 6z m7242 -7 c-3 -3 -12 -4 -19 -1 -8 3
-5 6 6 6 11 1 17 -2 13 -5z m4797 -10 c3 -8 2 -12 -4 -9 -6 3 -10 10 -10 16 0
14 7 11 14 -7z m-4757 0 c-3 -3 -12 -4 -19 -1 -8 3 -5 6 6 6 11 1 17 -2 13 -5z
m-7392 -14 c-11 -5 -27 -9 -35 -9 -9 0 -8 4 5 9 11 5 27 9 35 9 9 0 8 -4 -5
-9z m7432 4 c-3 -3 -12 -4 -19 -1 -8 3 -5 6 6 6 11 1 17 -2 13 -5z m40 -10
c-3 -3 -12 -4 -19 -1 -8 3 -5 6 6 6 11 1 17 -2 13 -5z m-7542 -14 c-11 -5 -27
-9 -35 -9 -9 0 -8 4 5 9 11 5 27 9 35 9 9 0 8 -4 -5 -9z m7605 0 c20 -6 21 -8
5 -8 -11 0 -29 3 -40 8 -25 11 1 11 35 0z m4669 -85 c0 -5 -11 10 -24 35 -13
25 -24 50 -24 55 0 6 11 -10 24 -35 13 -25 24 -49 24 -55z m-12339 65 c-8 -5
-22 -9 -30 -9 -10 0 -8 3 5 9 27 12 43 12 25 0z m7745 0 c13 -5 14 -9 5 -9 -8
0 -24 4 -35 9 -13 5 -14 9 -5 9 8 0 24 -4 35 -9z m-7805 -20 c-8 -5 -22 -9
-30 -9 -10 0 -8 3 5 9 27 12 43 12 25 0z m7857 4 c-3 -3 -12 -4 -19 -1 -8 3
-5 6 6 6 11 1 17 -2 13 -5z m58 -14 c13 -5 14 -9 5 -9 -8 0 -24 4 -35 9 -13 5
-14 9 -5 9 8 0 24 -4 35 -9z m-7975 -10 c-8 -5 -19 -10 -25 -10 -5 0 -3 5 5
10 8 5 20 10 25 10 6 0 3 -5 -5 -10z m8027 -6 c-3 -3 -12 -4 -19 -1 -8 3 -5 6
6 6 11 1 17 -2 13 -5z m-8142 -47 c-93 -49 -207 -151 -263 -237 -61 -94 -64
-97 -35 -41 31 60 104 147 175 206 46 39 174 115 193 115 6 -1 -26 -20 -70
-43z m8212 27 c-3 -3 -12 -4 -19 -1 -8 3 -5 6 6 6 11 1 17 -2 13 -5z m73 -19
c19 -7 28 -13 20 -13 -8 0 -31 6 -50 13 -19 7 -28 13 -20 13 8 0 31 -6 50 -13z
m4349 -120 c-1 -13 -57 107 -57 120 0 6 13 -17 28 -50 16 -33 29 -64 29 -70z
m-4264 95 c13 -5 14 -9 5 -9 -8 0 -24 4 -35 9 -13 5 -14 9 -5 9 8 0 24 -4 35
-9z m100 -30 c13 -5 14 -9 5 -9 -8 0 -24 4 -35 9 -13 5 -14 9 -5 9 8 0 24 -4
35 -9z m-10724 -37 c-12 -20 -14 -14 -5 12 4 9 9 14 11 11 3 -2 0 -13 -6 -23z
m10784 17 c13 -6 15 -9 5 -9 -8 0 -22 4 -30 9 -18 12 -2 12 25 0z m130 -40
c28 -10 43 -18 35 -18 -8 0 -37 8 -65 18 -27 10 -43 18 -35 18 8 0 38 -8 65
-18z m-10939 -37 c-8 -15 -15 -25 -16 -21 0 12 23 58 27 54 3 -2 -2 -17 -11
-33z m11117 -23 c54 -17 97 -34 94 -36 -4 -5 -208 63 -216 72 -3 4 1 5 9 2 8
-3 59 -20 113 -38z m3826 -15 c0 -5 -6 1 -14 15 -8 14 -14 30 -14 35 0 6 6 -1
14 -15 8 -14 14 -29 14 -35z m-14968 -22 c-12 -20 -14 -14 -5 12 4 9 9 14 11
11 3 -2 0 -13 -6 -23z m14989 -28 c0 -5 -5 -3 -10 5 -5 8 -10 20 -10 25 0 6 5
3 10 -5 5 -8 10 -19 10 -25z m-3650 -7 c10 -6 7 -7 -10 -2 -14 3 -32 11 -40
16 -10 6 -7 7 10 2 14 -3 32 -11 40 -16z m-11364 -25 c-8 -15 -15 -25 -16 -21
0 12 23 58 27 54 3 -2 -2 -17 -11 -33z m11424 7 c18 -12 2 -12 -25 0 -13 6
-15 9 -5 9 8 0 22 -4 30 -9z m3610 -25 c0 -5 -5 -3 -10 5 -5 8 -10 20 -10 25
0 6 5 3 10 -5 5 -8 10 -19 10 -25z m-3530 -7 c10 -6 7 -7 -10 -2 -14 3 -32 11
-40 16 -10 6 -7 7 10 2 14 -3 32 -11 40 -16z m-11542 -71 c-11 -32 -23 -56
-25 -54 -2 3 6 30 18 61 11 32 23 56 25 54 2 -2 -6 -30 -18 -61z m11622 41
c10 -6 7 -7 -10 -2 -14 3 -32 11 -40 16 -10 6 -7 7 10 2 14 -3 32 -11 40 -16z
m3474 -28 c5 -17 4 -20 -2 -10 -5 8 -13 26 -16 40 -5 17 -4 20 2 10 5 -8 13
-26 16 -40z m-3424 10 c8 -5 11 -10 5 -10 -5 0 -17 5 -25 10 -8 5 -10 10 -5
10 6 0 17 -5 25 -10z m-9639 -27 c-12 -20 -14 -14 -5 12 4 9 9 14 11 11 3 -2
0 -13 -6 -23z m9689 7 c8 -5 11 -10 5 -10 -5 0 -17 5 -25 10 -8 5 -10 10 -5
10 6 0 17 -5 25 -10z m95 -36 c36 -15 64 -28 62 -30 -3 -4 -128 44 -136 52
-10 9 12 3 74 -22z m3319 -64 c5 -20 3 -19 -8 5 -7 17 -16 41 -20 55 -5 20 -3
19 8 -5 7 -16 16 -41 20 -55z m-13128 24 c-8 -21 -15 -34 -15 -28 -1 15 20 76
25 71 2 -2 -2 -21 -10 -43z m9914 -4 c8 -5 11 -10 5 -10 -5 0 -17 5 -25 10 -8
5 -10 10 -5 10 6 0 17 -5 25 -10z m50 -20 c8 -5 11 -10 5 -10 -5 0 -17 5 -25
10 -8 5 -10 10 -5 10 6 0 17 -5 25 -10z m-12044 -106 c-19 -54 -35 -95 -35
-89 -1 15 60 197 65 192 2 -2 -12 -48 -30 -103z m12104 81 c14 -8 21 -14 15
-14 -5 0 -21 6 -35 14 -14 8 -20 14 -15 14 6 0 21 -6 35 -14z m-10043 -27 c-3
-7 -5 -2 -5 12 0 14 2 19 5 13 2 -7 2 -19 0 -25z m13198 -88 c19 -57 35 -109
34 -114 0 -6 -16 34 -35 89 -44 127 -48 141 -40 134 3 -3 22 -53 41 -109z
m-3075 80 c19 -11 31 -19 25 -19 -5 0 -26 8 -45 19 -19 11 -30 19 -25 19 6 0
26 -8 45 -19z m-10133 -57 c-3 -10 -5 -2 -5 17 0 19 2 27 5 18 2 -10 2 -26 0
-35z m10213 22 c14 -8 21 -14 15 -14 -5 0 -21 6 -35 14 -14 8 -20 14 -15 14 6
0 21 -6 35 -14z m100 -45 c30 -16 51 -29 45 -29 -5 0 -35 13 -65 29 -30 16
-50 29 -45 29 6 0 35 -13 65 -29z m130 -60 c30 -16 51 -29 45 -29 -5 0 -35 13
-65 29 -30 16 -50 29 -45 29 6 0 35 -13 65 -29z m-10453 -12 c-3 -8 -6 -5 -6
6 -1 11 2 17 5 13 3 -3 4 -12 1 -19z m10538 -36 c-3 -3 -11 0 -18 7 -9 10 -8
11 6 5 10 -3 15 -9 12 -12z m40 -12 c3 -6 -1 -7 -9 -4 -18 7 -21 14 -7 14 6 0
13 -4 16 -10z m-10568 -52 c-2 -13 -4 -5 -4 17 -1 22 1 32 4 23 2 -10 2 -28 0
-40z m-2118 -7 c-7 -23 -14 -39 -16 -37 -3 2 1 23 8 45 7 23 14 39 16 37 3 -2
-1 -23 -8 -45z m12741 34 c17 -9 30 -18 30 -21 0 -4 -59 23 -69 32 -10 9 13 3
39 -11z m2649 -65 c0 -9 -4 -8 -9 5 -5 11 -9 27 -9 35 0 9 4 8 9 -5 5 -11 9
-27 9 -35z m-2569 25 c17 -9 30 -18 30 -21 0 -4 -59 23 -69 32 -10 9 13 3 39
-11z m-10693 -37 c-3 -8 -6 -5 -6 6 -1 11 2 17 5 13 3 -3 4 -12 1 -19z m10758
-6 c-3 -3 -11 0 -18 7 -9 10 -8 11 6 5 10 -3 15 -9 12 -12z m-12916 -51 c-7
-23 -14 -39 -16 -37 -3 2 1 23 8 45 7 23 14 39 16 37 3 -2 -1 -23 -8 -45z
m13119 -53 c45 -27 82 -52 82 -54 0 -3 -3 -3 -7 -1 -5 3 -38 23 -75 45 -37 23
-94 55 -128 72 -33 17 -60 33 -60 35 0 8 95 -41 188 -97z m2309 80 c-3 -8 -6
-5 -6 6 -1 11 2 17 5 13 3 -3 4 -12 1 -19z m-13248 -38 c0 -9 -4 -8 -9 5 -5
11 -9 27 -9 35 0 9 4 8 9 -5 5 -11 9 -27 9 -35z m13270 -30 c0 -9 -4 -8 -9 5
-5 11 -9 27 -9 35 0 9 4 8 9 -5 5 -11 9 -27 9 -35z m-13231 -62 c17 -38 29
-68 27 -68 -6 0 -51 89 -60 120 -11 38 -2 22 33 -52z m4220 35 c-53 -2 -143
-2 -200 0 -57 1 -13 3 97 3 110 0 156 -2 103 -3z m480 0 c-71 -2 -185 -2 -255
0 -71 1 -13 3 127 3 140 0 198 -2 128 -3z m8539 -15 c-3 -8 -6 -5 -6 6 -1 11
2 17 5 13 3 -3 4 -12 1 -19z m-9434 5 c-23 -2 -64 -2 -90 0 -26 2 -7 3 42 3
50 0 71 -1 48 -3z m1245 0 c-27 -2 -69 -2 -95 0 -27 2 -5 3 47 3 52 0 74 -1
48 -3z m-7301 -25 c-3 -8 -6 -5 -6 6 -1 11 2 17 5 13 3 -3 4 -12 1 -19z m5821
15 c-21 -2 -55 -2 -75 0 -21 2 -4 4 37 4 41 0 58 -2 38 -4z m1695 0 c-24 -2
-62 -2 -85 0 -24 2 -5 4 42 4 47 0 66 -2 43 -4z m-1870 -10 c-18 -2 -48 -2
-65 0 -18 2 -4 4 32 4 36 0 50 -2 33 -4z m2030 0 c-18 -2 -48 -2 -65 0 -18 2
-4 4 32 4 36 0 50 -2 33 -4z m-2175 -10 c-16 -2 -40 -2 -55 0 -16 2 -3 4 27 4
30 0 43 -2 28 -4z m2310 0 c-16 -2 -40 -2 -55 0 -16 2 -3 4 27 4 30 0 43 -2
28 -4z m7689 -15 c-3 -8 -6 -5 -6 6 -1 11 2 17 5 13 3 -3 4 -12 1 -19z
m-10129 5 c-16 -2 -40 -2 -55 0 -16 2 -3 4 27 4 30 0 43 -2 28 -4z m2565 0
c-13 -2 -35 -2 -50 0 -16 2 -5 4 22 4 28 0 40 -2 28 -4z m5387 -50 c78 -61
136 -113 127 -113 -5 0 -28 18 -51 40 -24 22 -67 58 -96 80 -29 21 -55 42 -59
46 -13 15 26 -11 79 -53z m-13336 13 c-3 -15 -8 -25 -11 -23 -2 3 -1 17 3 31
3 15 8 25 11 23 2 -3 1 -17 -3 -31z m5269 27 c-13 -2 -35 -2 -50 0 -16 2 -5 4
22 4 28 0 40 -2 28 -4z m2790 0 c-13 -2 -35 -2 -50 0 -16 2 -5 4 22 4 28 0 40
-2 28 -4z m-2890 -10 c-13 -2 -35 -2 -50 0 -16 2 -5 4 22 4 28 0 40 -2 28 -4z
m2985 0 c-10 -2 -28 -2 -40 0 -13 2 -5 4 17 4 22 1 32 -1 23 -4z m-3090 -10
c-10 -2 -28 -2 -40 0 -13 2 -5 4 17 4 22 1 32 -1 23 -4z m3185 0 c-13 -2 -33
-2 -45 0 -13 2 -3 4 22 4 25 0 35 -2 23 -4z m7291 -63 c4 -24 3 -29 -3 -15 -4
11 -11 36 -15 55 -4 24 -3 29 3 15 4 -11 11 -36 15 -55z m-10566 53 c-10 -2
-28 -2 -40 0 -13 2 -5 4 17 4 22 1 32 -1 23 -4z m3360 0 c-10 -2 -26 -2 -35 0
-10 3 -2 5 17 5 19 0 27 -2 18 -5z m-3450 -10 c-10 -2 -28 -2 -40 0 -13 2 -5
4 17 4 22 1 32 -1 23 -4z m3540 0 c-10 -2 -28 -2 -40 0 -13 2 -5 4 17 4 22 1
32 -1 23 -4z m-3630 -10 c-10 -2 -26 -2 -35 0 -10 3 -2 5 17 5 19 0 27 -2 18
-5z m3710 0 c-10 -2 -26 -2 -35 0 -10 3 -2 5 17 5 19 0 27 -2 18 -5z m-6179
-36 c26 -43 127 -142 182 -179 52 -35 63 -45 29 -28 -39 20 -111 79 -160 133
-45 49 -87 107 -77 107 3 0 14 -15 26 -33z m2399 26 c-10 -2 -26 -2 -35 0 -10
3 -2 5 17 5 19 0 27 -2 18 -5z m3850 0 c-10 -2 -26 -2 -35 0 -10 3 -2 5 17 5
19 0 27 -2 18 -5z m-8591 -25 c-3 -8 -6 -5 -6 6 -1 11 2 17 5 13 3 -3 4 -12 1
-19z m4661 15 c-10 -2 -26 -2 -35 0 -10 3 -2 5 17 5 19 0 27 -2 18 -5z m4005
0 c-7 -2 -21 -2 -30 0 -10 3 -4 5 12 5 17 0 24 -2 18 -5z m-4070 -10 c-7 -2
-21 -2 -30 0 -10 3 -4 5 12 5 17 0 24 -2 18 -5z m4135 0 c-10 -2 -26 -2 -35 0
-10 3 -2 5 17 5 19 0 27 -2 18 -5z m-4210 -10 c-10 -2 -26 -2 -35 0 -10 3 -2
5 17 5 19 0 27 -2 18 -5z m4285 0 c-7 -2 -21 -2 -30 0 -10 3 -4 5 12 5 17 0
24 -2 18 -5z m-4350 -10 c-7 -2 -21 -2 -30 0 -10 3 -4 5 12 5 17 0 24 -2 18
-5z m4410 0 c-7 -2 -21 -2 -30 0 -10 3 -4 5 12 5 17 0 24 -2 18 -5z m-8879
-37 c-3 -15 -8 -25 -11 -23 -2 3 -1 17 3 31 3 15 8 25 11 23 2 -3 1 -17 -3
-31z m4409 27 c-7 -2 -21 -2 -30 0 -10 3 -4 5 12 5 17 0 24 -2 18 -5z m4530 0
c-7 -2 -21 -2 -30 0 -10 3 -4 5 12 5 17 0 24 -2 18 -5z m-4590 -10 c-7 -2 -21
-2 -30 0 -10 3 -4 5 12 5 17 0 24 -2 18 -5z m4650 0 c-7 -2 -21 -2 -30 0 -10
3 -4 5 12 5 17 0 24 -2 18 -5z m-4710 -10 c-7 -2 -21 -2 -30 0 -10 3 -4 5 12
5 17 0 24 -2 18 -5z m4770 0 c-7 -2 -21 -2 -30 0 -10 3 -4 5 12 5 17 0 24 -2
18 -5z m6524 -15 c-3 -8 -6 -5 -6 6 -1 11 2 17 5 13 3 -3 4 -12 1 -19z
m-11354 5 c-7 -2 -21 -2 -30 0 -10 3 -4 5 12 5 17 0 24 -2 18 -5z m4880 0 c-7
-2 -19 -2 -25 0 -7 3 -2 5 12 5 14 0 19 -2 13 -5z m-4940 -10 c-7 -2 -19 -2
-25 0 -7 3 -2 5 12 5 14 0 19 -2 13 -5z m5000 0 c-7 -2 -21 -2 -30 0 -10 3 -4
5 12 5 17 0 24 -2 18 -5z m-5050 -10 c-7 -2 -21 -2 -30 0 -10 3 -4 5 12 5 17
0 24 -2 18 -5z m5110 0 c-7 -2 -21 -2 -30 0 -10 3 -4 5 12 5 17 0 24 -2 18 -5z
m-5170 -10 c-7 -2 -19 -2 -25 0 -7 3 -2 5 12 5 14 0 19 -2 13 -5z m5220 0 c-7
-2 -19 -2 -25 0 -7 3 -2 5 12 5 14 0 19 -2 13 -5z m4273 -46 c41 -51 114 -175
114 -193 0 -5 -19 26 -43 69 -23 42 -61 100 -85 127 -24 28 -39 50 -35 50 4
-1 27 -24 49 -53z m2041 31 c-3 -8 -6 -5 -6 6 -1 11 2 17 5 13 3 -3 4 -12 1
-19z m-15610 -10 c-3 -8 -6 -5 -6 6 -1 11 2 17 5 13 3 -3 4 -12 1 -19z m4026
15 c-7 -2 -19 -2 -25 0 -7 3 -2 5 12 5 14 0 19 -2 13 -5z m5330 0 c-7 -2 -21
-2 -30 0 -10 3 -4 5 12 5 17 0 24 -2 18 -5z m-5376 -9 c-3 -3 -12 -4 -19 -1
-8 3 -5 6 6 6 11 1 17 -2 13 -5z m5426 -1 c-7 -2 -19 -2 -25 0 -7 3 -2 5 12 5
14 0 19 -2 13 -5z m-5470 -10 c-7 -2 -19 -2 -25 0 -7 3 -2 5 12 5 14 0 19 -2
13 -5z m5530 0 c-7 -2 -21 -2 -30 0 -10 3 -4 5 12 5 17 0 24 -2 18 -5z m-5580
-10 c-7 -2 -19 -2 -25 0 -7 3 -2 5 12 5 14 0 19 -2 13 -5z m5630 0 c-7 -2 -19
-2 -25 0 -7 3 -2 5 12 5 14 0 19 -2 13 -5z m6104 -15 c-3 -8 -6 -5 -6 6 -1 11
2 17 5 13 3 -3 4 -12 1 -19z m-15630 -10 c-3 -8 -6 -5 -6 6 -1 11 2 17 5 13 3
-3 4 -12 1 -19z m3833 12 c-14 -4 -34 -8 -45 -8 -16 0 -15 2 5 8 14 4 34 8 45
8 16 0 15 -2 -5 -8z m5743 3 c-7 -2 -19 -2 -25 0 -7 3 -2 5 12 5 14 0 19 -2
13 -5z m50 -10 c-7 -2 -19 -2 -25 0 -7 3 -2 5 12 5 14 0 19 -2 13 -5z m-5870
-10 c-7 -2 -19 -2 -25 0 -7 3 -2 5 12 5 14 0 19 -2 13 -5z m5920 0 c-7 -2 -19
-2 -25 0 -7 3 -2 5 12 5 14 0 19 -2 13 -5z m-5966 -9 c-3 -3 -12 -4 -19 -1 -8
3 -5 6 6 6 11 1 17 -2 13 -5z m6026 -1 c-7 -2 -21 -2 -30 0 -10 3 -4 5 12 5
17 0 24 -2 18 -5z m5904 -15 c-3 -8 -6 -5 -6 6 -1 11 2 17 5 13 3 -3 4 -12 1
-19z m-15650 -10 c-3 -8 -6 -5 -6 6 -1 11 2 17 5 13 3 -3 4 -12 1 -19z m3680
16 c-3 -3 -12 -4 -19 -1 -8 3 -5 6 6 6 11 1 17 -2 13 -5z m6110 0 c-3 -3 -12
-4 -19 -1 -8 3 -5 6 6 6 11 1 17 -2 13 -5z m-6150 -10 c-3 -3 -12 -4 -19 -1
-8 3 -5 6 6 6 11 1 17 -2 13 -5z m6196 -1 c-7 -2 -19 -2 -25 0 -7 3 -2 5 12 5
14 0 19 -2 13 -5z m-6236 -9 c-3 -3 -12 -4 -19 -1 -8 3 -5 6 6 6 11 1 17 -2
13 -5z m6280 0 c-3 -3 -12 -4 -19 -1 -8 3 -5 6 6 6 11 1 17 -2 13 -5z m-6320
-10 c-3 -3 -12 -4 -19 -1 -8 3 -5 6 6 6 11 1 17 -2 13 -5z m6393 -4 c20 -6 21
-8 5 -8 -11 0 -31 4 -45 8 -20 6 -21 8 -5 8 11 0 31 -4 45 -8z m5707 -12 c-3
-8 -6 -5 -6 6 -1 11 2 17 5 13 3 -3 4 -12 1 -19z m-15673 -22 c-3 -15 -8 -25
-11 -23 -2 3 -1 17 3 31 3 15 8 25 11 23 2 -3 1 -17 -3 -31z m3521 24 c-11 -5
-27 -9 -35 -9 -9 0 -8 4 5 9 11 5 27 9 35 9 9 0 8 -4 -5 -9z m-826 -26 c14
-12 -19 -1 -35 12 -18 14 -18 14 6 3 14 -6 27 -13 29 -15z m7328 20 c-3 -3
-12 -4 -19 -1 -8 3 -5 6 6 6 11 1 17 -2 13 -5z m-6560 -10 c-3 -3 -12 -4 -19
-1 -8 3 -5 6 6 6 11 1 17 -2 13 -5z m6600 0 c-3 -3 -12 -4 -19 -1 -8 3 -5 6 6
6 11 1 17 -2 13 -5z m-6640 -10 c-3 -3 -12 -4 -19 -1 -8 3 -5 6 6 6 11 1 17
-2 13 -5z m6680 0 c-3 -3 -12 -4 -19 -1 -8 3 -5 6 6 6 11 1 17 -2 13 -5z
m5580 -16 c-3 -8 -6 -5 -6 6 -1 11 2 17 5 13 3 -3 4 -12 1 -19z m-12947 2 c8
-5 11 -10 5 -10 -5 0 -17 5 -25 10 -8 5 -10 10 -5 10 6 0 17 -5 25 -10z m647
4 c-3 -3 -12 -4 -19 -1 -8 3 -5 6 6 6 11 1 17 -2 13 -5z m6760 0 c-3 -3 -12
-4 -19 -1 -8 3 -5 6 6 6 11 1 17 -2 13 -5z m-6800 -10 c-3 -3 -12 -4 -19 -1
-8 3 -5 6 6 6 11 1 17 -2 13 -5z m6840 0 c-3 -3 -12 -4 -19 -1 -8 3 -5 6 6 6
11 1 17 -2 13 -5z m-6892 -14 c-11 -5 -29 -8 -40 -8 -16 0 -15 2 5 8 34 11 60
11 35 0z m6932 4 c-3 -3 -12 -4 -19 -1 -8 3 -5 6 6 6 11 1 17 -2 13 -5z
m-10243 -48 c-3 -21 -8 -35 -11 -32 -2 2 -1 20 3 40 3 21 8 35 11 32 2 -2 1
-20 -3 -40z m2833 38 c-3 -3 -12 -4 -19 -1 -8 3 -5 6 6 6 11 1 17 -2 13 -5z
m7450 0 c-3 -3 -12 -4 -19 -1 -8 3 -5 6 6 6 11 1 17 -2 13 -5z m5430 -16 c-3
-8 -6 -5 -6 6 -1 11 2 17 5 13 3 -3 4 -12 1 -19z m-12834 5 c-7 -2 -19 -2 -25
0 -7 3 -2 5 12 5 14 0 19 -2 13 -5z m360 0 c-7 -2 -19 -2 -25 0 -7 3 -2 5 12
5 14 0 19 -2 13 -5z m7084 1 c-3 -3 -12 -4 -19 -1 -8 3 -5 6 6 6 11 1 17 -2
13 -5z m-7384 -11 c-7 -2 -21 -2 -30 0 -10 3 -4 5 12 5 17 0 24 -2 18 -5z
m250 0 c-7 -2 -21 -2 -30 0 -10 3 -4 5 12 5 17 0 24 -2 18 -5z m7192 -3 c13
-5 14 -9 5 -9 -8 0 -24 4 -35 9 -13 5 -14 9 -5 9 8 0 24 -4 35 -9z m-7282 -7
c-23 -2 -64 -2 -90 0 -26 2 -7 3 42 3 50 0 71 -1 48 -3z m7334 -9 c-3 -3 -12
-4 -19 -1 -8 3 -5 6 6 6 11 1 17 -2 13 -5z m5290 -26 c-3 -7 -5 -2 -5 12 0 14
2 19 5 13 2 -7 2 -19 0 -25z m-5232 12 c13 -5 14 -9 5 -9 -8 0 -24 4 -35 9
-13 5 -14 9 -5 9 8 0 24 -4 35 -9z m3264 -40 c0 -10 -3 -8 -9 5 -12 27 -12 43
0 25 5 -8 9 -22 9 -30z m-3182 14 c-3 -3 -12 -4 -19 -1 -8 3 -5 6 6 6 11 1 17
-2 13 -5z m-10590 -26 c-3 -8 -6 -5 -6 6 -1 11 2 17 5 13 3 -3 4 -12 1 -19z
m15750 0 c-3 -8 -6 -5 -6 6 -1 11 2 17 5 13 3 -3 4 -12 1 -19z m-5057 -3 c19
-7 28 -13 20 -13 -8 0 -31 6 -50 13 -19 7 -28 13 -20 13 8 0 31 -6 50 -13z
m3087 -37 c-3 -7 -5 -2 -5 12 0 14 2 19 5 13 2 -7 2 -19 0 -25z m-13790 0 c-3
-8 -6 -5 -6 6 -1 11 2 17 5 13 3 -3 4 -12 1 -19z m10788 12 c13 -5 14 -9 5 -9
-8 0 -24 4 -35 9 -13 5 -14 9 -5 9 8 0 24 -4 35 -9z m4982 -22 c-3 -7 -5 -2
-5 12 0 14 2 19 5 13 2 -7 2 -19 0 -25z m-15780 -40 c-3 -7 -5 -2 -5 12 0 14
2 19 5 13 2 -7 2 -19 0 -25z m10958 12 c28 -10 43 -18 35 -18 -8 0 -37 8 -65
18 -27 10 -43 18 -35 18 8 0 38 -8 65 -18z m2852 -32 c-2 -13 -4 -5 -4 17 -1
22 1 32 4 23 2 -10 2 -28 0 -40z m1980 20 c-3 -8 -6 -5 -6 6 -1 11 2 17 5 13
3 -3 4 -12 1 -19z m-4742 -18 c13 -6 15 -9 5 -9 -8 0 -22 4 -30 9 -18 12 -2
12 25 0z m-11058 -32 c-3 -7 -5 -2 -5 12 0 14 2 19 5 13 2 -7 2 -19 0 -25z
m15810 0 c-3 -7 -5 -2 -5 12 0 14 2 19 5 13 2 -7 2 -19 0 -25z m-4692 12 c13
-6 15 -9 5 -9 -8 0 -22 4 -30 9 -18 12 -2 12 25 0z m130 -46 c24 -11 25 -13 5
-8 -14 4 -38 13 -55 20 -24 11 -25 13 -5 8 14 -4 39 -13 55 -20z m-11258 -16
c-3 -7 -5 -2 -5 12 0 14 2 19 5 13 2 -7 2 -19 0 -25z m15841 -48 c0 -22 -1
-22 -8 5 -4 17 -8 41 -8 55 0 22 1 22 8 -5 4 -16 8 -41 8 -55z m-4508 40 c18
-12 2 -12 -25 0 -13 6 -15 9 -5 9 8 0 22 -4 30 -9z m-11343 -42 c-3 -7 -5 -2
-5 12 0 14 2 19 5 13 2 -7 2 -19 0 -25z m11423 10 c10 -6 7 -7 -10 -2 -14 3
-32 11 -40 16 -10 6 -7 7 10 2 14 -3 32 -11 40 -16z m2417 -30 c-2 -13 -4 -5
-4 17 -1 22 1 32 4 23 2 -10 2 -28 0 -40z m-2337 0 c10 -6 7 -7 -10 -2 -14 3
-32 11 -40 16 -10 6 -7 7 10 2 14 -3 32 -11 40 -16z m-11513 -35 c-3 -10 -5
-4 -5 12 0 17 2 24 5 18 2 -7 2 -21 0 -30z m11563 17 c8 -5 11 -10 5 -10 -5 0
-17 5 -25 10 -8 5 -10 10 -5 10 6 0 17 -5 25 -10z m4307 -22 c-3 -7 -5 -2 -5
12 0 14 2 19 5 13 2 -7 2 -19 0 -25z m-4257 2 c8 -5 11 -10 5 -10 -5 0 -17 5
-25 10 -8 5 -10 10 -5 10 6 0 17 -5 25 -10z m2220 -50 l-11 -25 6 25 c2 14 5
34 6 45 2 19 2 19 6 0 2 -12 -1 -32 -7 -45z m-2170 30 c8 -5 11 -10 5 -10 -5
0 -17 5 -25 10 -8 5 -10 10 -5 10 6 0 17 -5 25 -10z m-11673 -32 c-3 -7 -5 -2
-5 12 0 14 2 19 5 13 2 -7 2 -19 0 -25z m15890 -5 c-3 -10 -5 -4 -5 12 0 17 2
24 5 18 2 -7 2 -21 0 -30z m-4167 17 c8 -5 11 -10 5 -10 -5 0 -17 5 -25 10 -8
5 -10 10 -5 10 6 0 17 -5 25 -10z m60 -25 c14 -8 21 -14 15 -14 -5 0 -21 6
-35 14 -14 8 -20 14 -15 14 6 0 21 -6 35 -14z m-11793 -42 c-3 -10 -5 -4 -5
12 0 17 2 24 5 18 2 -7 2 -21 0 -30z m11853 17 c8 -5 11 -10 5 -10 -5 0 -17 5
-25 10 -8 5 -10 10 -5 10 6 0 17 -5 25 -10z m1980 -35 c-7 -20 -14 -35 -16
-33 -2 2 2 21 8 41 6 20 13 35 16 33 2 -3 -1 -21 -8 -41z m2077 8 c-3 -10 -5
-4 -5 12 0 17 2 24 5 18 2 -7 2 -21 0 -30z m-3877 -58 c80 -41 141 -74 135
-74 -5 0 -75 33 -155 74 -80 41 -140 74 -135 74 6 0 75 -33 155 -74z m-12043
13 c-3 -7 -5 -2 -5 12 0 14 2 19 5 13 2 -7 2 -19 0 -25z m15930 -25 c-3 -10
-5 -2 -5 17 0 19 2 27 5 18 2 -10 2 -26 0 -35z m-2127 -32 c-28 -56 -35 -52
-8 4 12 24 23 43 26 41 2 -2 -6 -22 -18 -45z m-13813 -8 c-3 -10 -5 -2 -5 17
0 19 2 27 5 18 2 -10 2 -26 0 -35z m15950 -30 c-3 -10 -5 -2 -5 17 0 19 2 27
5 18 2 -10 2 -26 0 -35z m-15960 -40 c-3 -10 -5 -2 -5 17 0 19 2 27 5 18 2
-10 2 -26 0 -35z m12279 9 c-5 -4 -66 26 -66 33 0 3 16 -3 35 -12 19 -9 33
-18 31 -21z m1503 -4 c-17 -33 -179 -193 -209 -207 -21 -10 -21 -8 5 11 55 43
153 139 181 179 30 43 41 51 23 17z m2188 -35 c-3 -10 -5 -2 -5 17 0 19 2 27
5 18 2 -10 2 -26 0 -35z m-3652 19 c-3 -3 -11 0 -18 7 -9 10 -8 11 6 5 10 -3
15 -9 12 -12z m40 -20 c-3 -3 -11 0 -18 7 -9 10 -8 11 6 5 10 -3 15 -9 12 -12z
m-12368 -44 c-2 -13 -4 -5 -4 17 -1 22 1 32 4 23 2 -10 2 -28 0 -40z m12683
-113 c0 -3 -67 29 -150 70 -82 41 -150 77 -150 80 0 3 68 -29 150 -70 83 -41
150 -77 150 -80z m3307 83 c-2 -13 -4 -5 -4 17 -1 22 1 32 4 23 2 -10 2 -28 0
-40z m-16000 -50 c-2 -13 -4 -5 -4 17 -1 22 1 32 4 23 2 -10 2 -28 0 -40z
m6486 15 c-34 -2 -93 -2 -130 0 -37 2 -9 3 62 3 72 0 102 -1 68 -3z m559 0
c-51 -2 -132 -2 -180 0 -48 1 -6 3 93 3 99 0 138 -2 87 -3z m8965 -45 c-2 -13
-4 -5 -4 17 -1 22 1 32 4 23 2 -10 2 -28 0 -40z m-8689 35 c-27 -2 -69 -2 -95
0 -27 2 -5 3 47 3 52 0 74 -1 48 -3z m170 -10 c-21 -2 -57 -2 -80 0 -24 2 -7
4 37 4 44 0 63 -2 43 -4z m135 -10 c-18 -2 -48 -2 -65 0 -18 2 -4 4 32 4 36 0
50 -2 33 -4z m125 -10 c-16 -2 -40 -2 -55 0 -16 2 -3 4 27 4 30 0 43 -2 28 -4z
m115 -10 c-13 -2 -35 -2 -50 0 -16 2 -5 4 22 4 28 0 40 -2 28 -4z m-7876 -65
c-2 -13 -4 -3 -4 22 0 25 2 35 4 23 2 -13 2 -33 0 -45z m7966 55 c-13 -2 -33
-2 -45 0 -13 2 -3 4 22 4 25 0 35 -2 23 -4z m4772 -3 c3 -6 -1 -7 -9 -4 -18 7
-21 14 -7 14 6 0 13 -4 16 -10z m-4672 -7 c-13 -2 -33 -2 -45 0 -13 2 -3 4 22
4 25 0 35 -2 23 -4z m-2810 -10 c-7 -2 -19 -2 -25 0 -7 3 -2 5 12 5 14 0 19
-2 13 -5z m2895 0 c-10 -2 -28 -2 -40 0 -13 2 -5 4 17 4 22 1 32 -1 23 -4z
m4748 -71 c-5 -4 -146 66 -146 73 0 3 34 -12 75 -32 41 -20 73 -39 71 -41z
m674 73 c0 -6 -117 -65 -127 -65 -4 1 21 16 57 35 72 38 70 37 70 30z m-8397
-12 c-7 -2 -19 -2 -25 0 -7 3 -2 5 12 5 14 0 19 -2 13 -5z m3055 0 c-10 -2
-28 -2 -40 0 -13 2 -5 4 17 4 22 1 32 -1 23 -4z m7799 -45 c-2 -13 -4 -5 -4
17 -1 22 1 32 4 23 2 -10 2 -28 0 -40z m-10929 35 c-10 -2 -26 -2 -35 0 -10 3
-2 5 17 5 19 0 27 -2 18 -5z m3210 0 c-10 -2 -26 -2 -35 0 -10 3 -2 5 17 5 19
0 27 -2 18 -5z m-3308 -14 c-25 -4 -56 -7 -70 -7 -38 1 37 15 80 15 32 0 31 0
-10 -8z m3378 4 c-10 -2 -26 -2 -35 0 -10 3 -2 5 17 5 19 0 27 -2 18 -5z m70
-10 c-10 -2 -26 -2 -35 0 -10 3 -2 5 17 5 19 0 27 -2 18 -5z m-3767 -44 c-437
-76 -827 -163 -1100 -245 -62 -19 -115 -33 -117 -31 -11 11 393 122 639 177
306 67 698 138 767 138 19 0 -66 -17 -189 -39z m3874 32 c26 -6 31 -9 15 -9
-14 -1 -43 3 -65 7 -26 6 -31 9 -15 9 14 1 43 -3 65 -7z m88 -18 c-7 -2 -21
-2 -30 0 -10 3 -4 5 12 5 17 0 24 -2 18 -5z m4777 -3 c-8 -5 -22 -9 -30 -9
-10 0 -8 3 5 9 27 12 43 12 25 0z m-13433 -52 c-2 -13 -4 -5 -4 17 -1 22 1 32
4 23 2 -10 2 -28 0 -40z m8716 45 c-7 -2 -21 -2 -30 0 -10 3 -4 5 12 5 17 0
24 -2 18 -5z m4242 -3 c13 -6 15 -9 5 -9 -8 0 -22 4 -30 9 -18 12 -2 12 25 0z
m-4182 -7 c-7 -2 -21 -2 -30 0 -10 3 -4 5 12 5 17 0 24 -2 18 -5z m4592 -3
c-11 -5 -29 -8 -40 -8 -16 0 -15 2 5 8 34 11 60 11 35 0z m-4532 -7 c-7 -2
-21 -2 -30 0 -10 3 -4 5 12 5 17 0 24 -2 18 -5z m4174 1 c-3 -3 -12 -4 -19 -1
-8 3 -5 6 6 6 11 1 17 -2 13 -5z m3040 -61 c-2 -16 -4 -5 -4 22 0 28 2 40 4
28 2 -13 2 -35 0 -50z m-7122 47 c27 -7 27 -8 5 -8 -14 0 -38 4 -55 8 -27 7
-27 8 -5 8 14 0 39 -4 55 -8z m4128 3 c-7 -2 -19 -2 -25 0 -7 3 -2 5 12 5 14
0 19 -2 13 -5z m240 0 c-7 -2 -21 -2 -30 0 -10 3 -4 5 12 5 17 0 24 -2 18 -5z
m-100 -10 c-24 -2 -62 -2 -85 0 -24 2 -5 4 42 4 47 0 66 -2 43 -4z m-4163 -13
c20 -6 21 -8 5 -8 -11 0 -33 4 -50 8 -27 7 -27 8 -5 8 14 0 36 -4 50 -8z m63
-17 c-7 -2 -19 -2 -25 0 -7 3 -2 5 12 5 14 0 19 -2 13 -5z m60 -10 c-7 -2 -21
-2 -30 0 -10 3 -4 5 12 5 17 0 24 -2 18 -5z m-9166 -70 c-2 -16 -4 -5 -4 22 0
28 2 40 4 28 2 -13 2 -35 0 -50z m9210 61 c-3 -3 -12 -4 -19 -1 -8 3 -5 6 6 6
11 1 17 -2 13 -5z m46 -11 c-7 -2 -19 -2 -25 0 -7 3 -2 5 12 5 14 0 19 -2 13
-5z m44 -9 c-3 -3 -12 -4 -19 -1 -8 3 -5 6 6 6 11 1 17 -2 13 -5z m50 -10 c-3
-3 -12 -4 -19 -1 -8 3 -5 6 6 6 11 1 17 -2 13 -5z m40 -10 c-3 -3 -12 -4 -19
-1 -8 3 -5 6 6 6 11 1 17 -2 13 -5z m6680 -71 c-2 -16 -4 -3 -4 27 0 30 2 43
4 28 2 -16 2 -40 0 -55z m-6630 61 c-3 -3 -12 -4 -19 -1 -8 3 -5 6 6 6 11 1
17 -2 13 -5z m40 -10 c-3 -3 -12 -4 -19 -1 -8 3 -5 6 6 6 11 1 17 -2 13 -5z
m86 -21 c-7 -2 -19 -2 -25 0 -7 3 -2 5 12 5 14 0 19 -2 13 -5z m84 -19 c-3 -3
-12 -4 -19 -1 -8 3 -5 6 6 6 11 1 17 -2 13 -5z m-9660 -66 c-2 -13 -4 -3 -4
22 0 25 2 35 4 23 2 -13 2 -33 0 -45z m16090 -80 c-2 -18 -4 -6 -4 27 0 33 2
48 4 33 2 -15 2 -42 0 -60z m-12647 32 c-8 -5 -19 -10 -25 -10 -5 0 -3 5 5 10
8 5 20 10 25 10 6 0 3 -5 -5 -10z m-3453 -97 c-2 -21 -4 -6 -4 32 0 39 2 55 4
38 2 -18 2 -50 0 -70z m3412 83 c-10 -9 -69 -36 -69 -32 0 7 52 35 64 36 5 0
7 -2 5 -4z m-99 -53 c-53 -35 -177 -171 -207 -228 -18 -33 -33 -55 -33 -49 0
21 76 135 125 185 48 50 122 110 134 108 3 0 -5 -7 -19 -16z m12797 -166 c-2
-23 -3 -1 -3 48 0 50 1 68 3 42 2 -26 2 -67 0 -90z m-16120 -224 c-1 -54 -3
-12 -3 92 0 105 2 149 3 98 2 -51 2 -136 0 -190z m10923 187 c8 -5 11 -10 5
-10 -5 0 -17 5 -25 10 -8 5 -10 10 -5 10 6 0 17 -5 25 -10z m230 -90 c8 -5 11
-10 5 -10 -5 0 -17 5 -25 10 -8 5 -10 10 -5 10 6 0 17 -5 25 -10z m-8079 -31
c-5 -13 -10 -19 -10 -12 -1 15 10 45 15 40 3 -2 0 -15 -5 -28z m8129 11 c8 -5
11 -10 5 -10 -5 0 -17 5 -25 10 -8 5 -10 10 -5 10 6 0 17 -5 25 -10z m50 -20
c8 -5 11 -10 5 -10 -5 0 -17 5 -25 10 -8 5 -10 10 -5 10 6 0 17 -5 25 -10z
m4877 -307 c-1 -60 -3 -11 -3 107 0 118 2 167 3 108 2 -60 2 -156 0 -215z
m-4660 216 c254 -109 594 -278 783 -389 85 -50 160 -96 165 -102 6 -7 -3 -4
-19 6 -180 112 -697 375 -966 491 -85 37 -157 69 -159 71 -11 11 23 -2 196
-77z m-8410 49 c-3 -8 -6 -5 -6 6 -1 11 2 17 5 13 3 -3 4 -12 1 -19z m-10 -50
c-3 -7 -5 -2 -5 12 0 14 2 19 5 13 2 -7 2 -19 0 -25z m-10 -130 c-2 -24 -4 -7
-4 37 0 44 2 63 4 43 2 -21 2 -57 0 -80z m-3040 -240 c-1 -57 -3 -11 -3 102 0
113 2 159 3 103 2 -57 2 -149 0 -205z m3050 150 c-3 -7 -5 -2 -5 12 0 14 2 19
5 13 2 -7 2 -19 0 -25z m10 -40 c-3 -8 -6 -5 -6 6 -1 11 2 17 5 13 3 -3 4 -12
1 -19z m22 -63 c0 -5 -4 -3 -9 5 -5 8 -9 22 -9 30 0 16 17 -16 18 -35z m3743
18 c-73 -2 -190 -2 -260 0 -70 1 -10 3 133 3 143 0 200 -2 127 -3z m-539 -10
c-29 -2 -77 -2 -105 0 -29 2 -6 3 52 3 58 0 81 -1 53 -3z m1082 -3 c266 -17
336 -23 331 -28 -3 -2 -82 1 -175 8 -94 7 -253 16 -353 20 -159 6 -168 7 -68
8 63 1 183 -3 265 -8z m-1307 -7 c-21 -2 -55 -2 -75 0 -21 2 -4 4 37 4 41 0
58 -2 38 -4z m-160 -10 c-16 -2 -40 -2 -55 0 -16 2 -3 4 27 4 30 0 43 -2 28
-4z m-2794 -40 c9 -18 14 -33 12 -33 -6 0 -36 55 -36 66 0 11 5 3 24 -33z
m2669 30 c-13 -2 -33 -2 -45 0 -13 2 -3 4 22 4 25 0 35 -2 23 -4z m-110 -10
c-13 -2 -33 -2 -45 0 -13 2 -3 4 22 4 25 0 35 -2 23 -4z m2125 0 c-16 -2 -40
-2 -55 0 -16 2 -3 4 27 4 30 0 43 -2 28 -4z m-2220 -10 c-10 -2 -28 -2 -40 0
-13 2 -5 4 17 4 22 1 32 -1 23 -4z m2315 0 c-13 -2 -33 -2 -45 0 -13 2 -3 4
22 4 25 0 35 -2 23 -4z m-2415 -10 c-10 -2 -26 -2 -35 0 -10 3 -2 5 17 5 19 0
27 -2 18 -5z m2500 0 c-10 -2 -26 -2 -35 0 -10 3 -2 5 17 5 19 0 27 -2 18 -5z
m-2570 -10 c-10 -2 -28 -2 -40 0 -13 2 -5 4 17 4 22 1 32 -1 23 -4z m2660 0
c-10 -2 -26 -2 -35 0 -10 3 -2 5 17 5 19 0 27 -2 18 -5z m-2750 -10 c-10 -2
-26 -2 -35 0 -10 3 -2 5 17 5 19 0 27 -2 18 -5z m2825 0 c-7 -2 -19 -2 -25 0
-7 3 -2 5 12 5 14 0 19 -2 13 -5z m-2890 -10 c-7 -2 -21 -2 -30 0 -10 3 -4 5
12 5 17 0 24 -2 18 -5z m2964 1 c-3 -3 -12 -4 -19 -1 -8 3 -5 6 6 6 11 1 17
-2 13 -5z m-3034 -11 c-7 -2 -21 -2 -30 0 -10 3 -4 5 12 5 17 0 24 -2 18 -5z
m3114 1 c-3 -3 -12 -4 -19 -1 -8 3 -5 6 6 6 11 1 17 -2 13 -5z m7830 -116 c-2
-24 -4 -5 -4 42 0 47 2 66 4 43 2 -24 2 -62 0 -85z m-12887 -9 c43 -42 95 -80
143 -105 42 -21 74 -40 72 -42 -2 -2 -36 13 -77 34 -75 40 -213 164 -237 214
-10 20 -8 19 10 -5 12 -16 52 -60 89 -96z m1878 114 c-10 -2 -26 -2 -35 0 -10
3 -2 5 17 5 19 0 27 -2 18 -5z m3239 1 c-3 -3 -12 -4 -19 -1 -8 3 -5 6 6 6 11
1 17 -2 13 -5z m-3304 -11 c-7 -2 -19 -2 -25 0 -7 3 -2 5 12 5 14 0 19 -2 13
-5z m-60 -10 c-7 -2 -21 -2 -30 0 -10 3 -4 5 12 5 17 0 24 -2 18 -5z m3500 0
c-7 -2 -19 -2 -25 0 -7 3 -2 5 12 5 14 0 19 -2 13 -5z m-3560 -10 c-7 -2 -19
-2 -25 0 -7 3 -2 5 12 5 14 0 19 -2 13 -5z m3630 0 c-7 -2 -19 -2 -25 0 -7 3
-2 5 12 5 14 0 19 -2 13 -5z m-3680 -10 c-7 -2 -21 -2 -30 0 -10 3 -4 5 12 5
17 0 24 -2 18 -5z m3740 0 c-7 -2 -19 -2 -25 0 -7 3 -2 5 12 5 14 0 19 -2 13
-5z m-3800 -10 c-7 -2 -19 -2 -25 0 -7 3 -2 5 12 5 14 0 19 -2 13 -5z m3860 0
c-7 -2 -21 -2 -30 0 -10 3 -4 5 12 5 17 0 24 -2 18 -5z m-3910 -10 c-7 -2 -21
-2 -30 0 -10 3 -4 5 12 5 17 0 24 -2 18 -5z m4002 -3 c27 -7 27 -8 5 -8 -14 0
-38 4 -55 8 -27 7 -27 8 -5 8 14 0 39 -4 55 -8z m-4062 -7 c-7 -2 -19 -2 -25
0 -7 3 -2 5 12 5 14 0 19 -2 13 -5z m-50 -10 c-7 -2 -19 -2 -25 0 -7 3 -2 5
12 5 14 0 19 -2 13 -5z m4282 -15 c60 -12 105 -23 99 -25 -5 -2 -61 8 -124 21
-63 13 -108 24 -100 25 8 1 64 -9 125 -21z m-4328 6 c-3 -3 -12 -4 -19 -1 -8
3 -5 6 6 6 11 1 17 -2 13 -5z m-44 -11 c-7 -2 -19 -2 -25 0 -7 3 -2 5 12 5 14
0 19 -2 13 -5z m-4556 -85 c-2 -18 -4 -6 -4 27 0 33 2 48 4 33 2 -15 2 -42 0
-60z m4506 75 c-7 -2 -19 -2 -25 0 -7 3 -2 5 12 5 14 0 19 -2 13 -5z m-46 -9
c-3 -3 -12 -4 -19 -1 -8 3 -5 6 6 6 11 1 17 -2 13 -5z m-57 -14 c-14 -4 -34
-8 -45 -8 -16 0 -15 2 5 8 14 4 34 8 45 8 16 0 15 -2 -5 -8z m4700 0 c20 -6
21 -8 5 -8 -11 0 -31 4 -45 8 -20 6 -21 8 -5 8 11 0 31 -4 45 -8z m-4773 -16
c-3 -3 -12 -4 -19 -1 -8 3 -5 6 6 6 11 1 17 -2 13 -5z m4863 -4 c20 -6 21 -8
5 -8 -11 0 -31 4 -45 8 -20 6 -21 8 -5 8 11 0 31 -4 45 -8z m-4920 -10 c-14
-4 -34 -8 -45 -8 -16 0 -15 2 5 8 14 4 34 8 45 8 16 0 15 -2 -5 -8z m4977 -6
c-3 -3 -12 -4 -19 -1 -8 3 -5 6 6 6 11 1 17 -2 13 -5z m-5050 -10 c-3 -3 -12
-4 -19 -1 -8 3 -5 6 6 6 11 1 17 -2 13 -5z m5090 0 c-3 -3 -12 -4 -19 -1 -8 3
-5 6 6 6 11 1 17 -2 13 -5z m-5130 -10 c-3 -3 -12 -4 -19 -1 -8 3 -5 6 6 6 11
1 17 -2 13 -5z m5170 0 c-3 -3 -12 -4 -19 -1 -8 3 -5 6 6 6 11 1 17 -2 13 -5z
m6770 -86 c-2 -18 -4 -4 -4 32 0 36 2 50 4 33 2 -18 2 -48 0 -65z m-11980 76
c-3 -3 -12 -4 -19 -1 -8 3 -5 6 6 6 11 1 17 -2 13 -5z m5250 0 c-3 -3 -12 -4
-19 -1 -8 3 -5 6 6 6 11 1 17 -2 13 -5z m-5302 -14 c-11 -5 -27 -9 -35 -9 -9
0 -8 4 5 9 11 5 27 9 35 9 9 0 8 -4 -5 -9z m5342 4 c-3 -3 -12 -4 -19 -1 -8 3
-5 6 6 6 11 1 17 -2 13 -5z m-5400 -20 c-3 -3 -12 -4 -19 -1 -8 3 -5 6 6 6 11
1 17 -2 13 -5z m5480 0 c-3 -3 -12 -4 -19 -1 -8 3 -5 6 6 6 11 1 17 -2 13 -5z
m-5520 -10 c-3 -3 -12 -4 -19 -1 -8 3 -5 6 6 6 11 1 17 -2 13 -5z m-3960 -56
c-2 -13 -4 -5 -4 17 -1 22 1 32 4 23 2 -10 2 -28 0 -40z m3908 42 c-11 -5 -29
-8 -40 -8 -16 0 -15 2 5 8 34 11 60 11 35 0z m-430 -20 c13 -6 15 -9 5 -9 -8
0 -22 4 -30 9 -18 12 -2 12 25 0z m362 4 c-3 -3 -12 -4 -19 -1 -8 3 -5 6 6 6
11 1 17 -2 13 -5z m-44 -11 c-7 -2 -19 -2 -25 0 -7 3 -2 5 12 5 14 0 19 -2 13
-5z m-266 -9 c-3 -3 -12 -4 -19 -1 -8 3 -5 6 6 6 11 1 17 -2 13 -5z m216 -1
c-7 -2 -21 -2 -30 0 -10 3 -4 5 12 5 17 0 24 -2 18 -5z m-85 -10 c-21 -2 -57
-2 -80 0 -24 2 -7 4 37 4 44 0 63 -2 43 -4z m-3651 -95 c-2 -13 -4 -3 -4 22 0
25 2 35 4 23 2 -13 2 -33 0 -45z m16070 -15 c-2 -16 -4 -3 -4 27 0 30 2 43 4
28 2 -16 2 -40 0 -55z m-3321 25 c23 -45 12 -43 -13 3 -12 21 -17 37 -12 33 5
-3 16 -19 25 -36z m-12739 -100 c-2 -13 -4 -5 -4 17 -1 22 1 32 4 23 2 -10 2
-28 0 -40z m12777 2 c5 -17 4 -20 -2 -10 -5 8 -13 26 -16 40 -5 17 -4 20 2 10
5 -8 13 -26 16 -40z m3273 -32 c-2 -13 -4 -3 -4 22 0 25 2 35 4 23 2 -13 2
-33 0 -45z m-5667 0 c10 -6 7 -7 -10 -2 -14 3 -32 11 -40 16 -10 6 -7 7 10 2
14 -3 32 -11 40 -16z m2407 -20 c-3 -8 -6 -5 -6 6 -1 11 2 17 5 13 3 -3 4 -12
1 -19z m-12780 -40 c-2 -13 -4 -5 -4 17 -1 22 1 32 4 23 2 -10 2 -28 0 -40z
m10483 20 c10 -6 7 -7 -10 -2 -14 3 -32 11 -40 16 -10 6 -7 7 10 2 14 -3 32
-11 40 -16z m2307 -35 c-3 -10 -5 -4 -5 12 0 17 2 24 5 18 2 -7 2 -21 0 -30z
m3240 -25 c-2 -13 -4 -3 -4 22 0 25 2 35 4 23 2 -13 2 -33 0 -45z m-5467 30
c10 -6 7 -7 -10 -2 -14 3 -32 11 -40 16 -10 6 -7 7 10 2 14 -3 32 -11 40 -16z
m50 -18 c8 -5 11 -10 5 -10 -5 0 -17 5 -25 10 -8 5 -10 10 -5 10 6 0 17 -5 25
-10z m-10603 -52 c-2 -13 -4 -5 -4 17 -1 22 1 32 4 23 2 -10 2 -28 0 -40z
m10653 32 c8 -5 11 -10 5 -10 -5 0 -17 5 -25 10 -8 5 -10 10 -5 10 6 0 17 -5
25 -10z m2137 -97 c-2 -21 -4 -4 -4 37 0 41 2 58 4 38 2 -21 2 -55 0 -75z
m-2087 77 c8 -5 11 -10 5 -10 -5 0 -17 5 -25 10 -8 5 -10 10 -5 10 6 0 17 -5
25 -10z m60 -25 c14 -8 21 -14 15 -14 -5 0 -21 6 -35 14 -14 8 -20 14 -15 14
6 0 21 -6 35 -14z m5247 -32 c-3 -10 -5 -2 -5 17 0 19 2 27 5 18 2 -10 2 -26
0 -35z m-5099 -32 c103 -46 223 -107 192 -97 -18 6 -303 137 -309 142 -13 12
21 -1 117 -45z m-10901 -8 c-3 -10 -5 -2 -5 17 0 19 2 27 5 18 2 -10 2 -26 0
-35z m15990 -40 c-3 -10 -5 -2 -5 17 0 19 2 27 5 18 2 -10 2 -26 0 -35z
m-15980 -30 c-3 -10 -5 -2 -5 17 0 19 2 27 5 18 2 -10 2 -26 0 -35z m12760 10
c-3 -10 -5 -4 -5 12 0 17 2 24 5 18 2 -7 2 -21 0 -30z m3210 -50 c-3 -10 -5
-2 -5 17 0 19 2 27 5 18 2 -10 2 -26 0 -35z m-3220 5 c-3 -8 -6 -5 -6 6 -1 11
2 17 5 13 3 -3 4 -12 1 -19z m-12740 -35 c-3 -10 -5 -2 -5 17 0 19 2 27 5 18
2 -10 2 -26 0 -35z m11118 37 c3 -6 -1 -7 -9 -4 -18 7 -21 14 -7 14 6 0 13 -4
16 -10z m51 -26 c18 -14 18 -14 -6 -3 -31 14 -36 19 -24 19 6 0 19 -7 30 -16z
m4781 -51 c-3 -10 -5 -2 -5 17 0 19 2 27 5 18 2 -10 2 -26 0 -35z m-4721 21
c18 -14 18 -14 -6 -3 -31 14 -36 19 -24 19 6 0 19 -7 30 -16z m1468 -56 c-33
-67 -93 -140 -158 -196 -53 -44 -196 -122 -225 -122 -9 0 10 11 42 24 144 59
270 171 329 291 18 36 34 63 36 61 2 -2 -9 -28 -24 -58z m-12687 15 c-3 -10
-5 -4 -5 12 0 17 2 24 5 18 2 -7 2 -21 0 -30z m11268 17 c3 -6 -1 -7 -9 -4
-18 7 -21 14 -7 14 6 0 13 -4 16 -10z m60 -30 c3 -6 -1 -7 -9 -4 -18 7 -21 14
-7 14 6 0 13 -4 16 -10z m4602 -27 c-3 -10 -5 -4 -5 12 0 17 2 24 5 18 2 -7 2
-21 0 -30z m-15920 -20 c-3 -10 -5 -4 -5 12 0 17 2 24 5 18 2 -7 2 -21 0 -30z
m11358 27 c3 -6 -1 -7 -9 -4 -18 7 -21 14 -7 14 6 0 13 -4 16 -10z m60 -38
c-3 -3 -11 0 -18 7 -9 10 -8 11 6 5 10 -3 15 -9 12 -12z m4492 -29 c-3 -10 -5
-4 -5 12 0 17 2 24 5 18 2 -7 2 -21 0 -30z m-4377 -28 c0 -3 -22 6 -50 20 -27
14 -50 28 -50 30 0 3 23 -6 50 -20 28 -14 50 -28 50 -30z m-11512 -30 c0 -16
-2 -15 -8 5 -4 14 -8 36 -8 50 0 22 1 22 8 -5 4 -16 8 -39 8 -50z m15879 3
c-3 -7 -5 -2 -5 12 0 14 2 19 5 13 2 -7 2 -19 0 -25z m-4277 -23 c0 -3 -18 4
-40 15 -22 11 -40 23 -40 25 0 3 18 -4 40 -15 22 -11 40 -23 40 -25z m4267
-32 c-3 -10 -5 -4 -5 12 0 17 2 24 5 18 2 -7 2 -21 0 -30z m-15860 -10 c-3
-10 -5 -4 -5 12 0 17 2 24 5 18 2 -7 2 -21 0 -30z m11658 2 l20 -16 -20 10
c-11 5 -29 17 -40 26 l-20 16 20 -10 c11 -5 29 -17 40 -26z m75 -45 c8 -5 11
-10 5 -10 -5 0 -21 10 -35 21 -24 20 -5 13 30 -11z m4117 -2 c-3 -7 -5 -2 -5
12 0 14 2 19 5 13 2 -7 2 -19 0 -25z m-15840 0 c-3 -8 -6 -5 -6 6 -1 11 2 17
5 13 3 -3 4 -12 1 -19z m11768 -26 c-3 -3 -11 0 -18 7 -9 10 -8 11 6 5 10 -3
15 -9 12 -12z m-11758 -24 c-3 -7 -5 -2 -5 12 0 14 2 19 5 13 2 -7 2 -19 0
-25z m15820 0 c-3 -7 -5 -2 -5 12 0 14 2 19 5 13 2 -7 2 -19 0 -25z m-3992 2
c28 -10 43 -19 35 -19 -14 0 -101 36 -90 38 3 1 28 -8 55 -19z m-4430 -9 c50
-7 44 -8 -38 -4 -54 3 -349 5 -655 6 -306 1 -505 4 -442 8 156 9 1060 1 1135
-10z m-1327 -8 c-10 -2 -26 -2 -35 0 -10 3 -2 5 17 5 19 0 27 -2 18 -5z
m-6061 -35 c-3 -7 -5 -2 -5 12 0 14 2 19 5 13 2 -7 2 -19 0 -25z m7536 25
c-13 -2 -33 -2 -45 0 -13 2 -3 4 22 4 25 0 35 -2 23 -4z m4364 1 c-3 -3 -12
-4 -19 -1 -8 3 -5 6 6 6 11 1 17 -2 13 -5z m310 0 c-3 -3 -12 -4 -19 -1 -8 3
-5 6 6 6 11 1 17 -2 13 -5z m3590 -16 c-3 -8 -6 -5 -6 6 -1 11 2 17 5 13 3 -3
4 -12 1 -19z m-8164 5 c-13 -2 -33 -2 -45 0 -13 2 -3 4 22 4 25 0 35 -2 23 -4z
m4320 0 c-7 -2 -21 -2 -30 0 -10 3 -4 5 12 5 17 0 24 -2 18 -5z m210 0 c-7 -2
-19 -2 -25 0 -7 3 -2 5 12 5 14 0 19 -2 13 -5z m-4420 -10 c-13 -2 -35 -2 -50
0 -16 2 -5 4 22 4 28 0 40 -2 28 -4z m4330 0 c-18 -2 -48 -2 -65 0 -18 2 -4 4
32 4 36 0 50 -2 33 -4z m-4230 -10 c-13 -2 -33 -2 -45 0 -13 2 -3 4 22 4 25 0
35 -2 23 -4z m85 -10 c-10 -2 -28 -2 -40 0 -13 2 -5 4 17 4 22 1 32 -1 23 -4z
m7859 -25 c-3 -7 -5 -2 -5 12 0 14 2 19 5 13 2 -7 2 -19 0 -25z m-15769 -43
c0 -16 -2 -15 -8 5 -4 14 -8 34 -8 45 0 16 2 15 8 -5 4 -14 8 -34 8 -45z
m8005 58 c-13 -2 -33 -2 -45 0 -13 2 -3 4 22 4 25 0 35 -2 23 -4z m75 -10
c-10 -2 -26 -2 -35 0 -10 3 -2 5 17 5 19 0 27 -2 18 -5z m75 -10 c-7 -2 -21
-2 -30 0 -10 3 -4 5 12 5 17 0 24 -2 18 -5z m65 -10 c-10 -2 -26 -2 -35 0 -10
3 -2 5 17 5 19 0 27 -2 18 -5z m-3271 -9 c-3 -3 -12 -4 -19 -1 -8 3 -5 6 6 6
11 1 17 -2 13 -5z m3336 -1 c-7 -2 -21 -2 -30 0 -10 3 -4 5 12 5 17 0 24 -2
18 -5z m7474 -15 c-3 -8 -6 -5 -6 6 -1 11 2 17 5 13 3 -3 4 -12 1 -19z m-7414
5 c-7 -2 -21 -2 -30 0 -10 3 -4 5 12 5 17 0 24 -2 18 -5z m60 -10 c-7 -2 -21
-2 -30 0 -10 3 -4 5 12 5 17 0 24 -2 18 -5z m-3670 -10 c-7 -2 -19 -2 -25 0
-7 3 -2 5 12 5 14 0 19 -2 13 -5z m3730 0 c-7 -2 -21 -2 -30 0 -10 3 -4 5 12
5 17 0 24 -2 18 -5z m-3800 -10 c-7 -2 -19 -2 -25 0 -7 3 -2 5 12 5 14 0 19
-2 13 -5z m3850 0 c-7 -2 -19 -2 -25 0 -7 3 -2 5 12 5 14 0 19 -2 13 -5z
m7231 -37 c-3 -21 -8 -35 -11 -32 -2 2 -1 20 3 40 3 21 8 35 11 32 2 -2 1 -20
-3 -40z m-15737 12 c-3 -8 -6 -5 -6 6 -1 11 2 17 5 13 3 -3 4 -12 1 -19z
m4596 15 c-7 -2 -19 -2 -25 0 -7 3 -2 5 12 5 14 0 19 -2 13 -5z m3960 0 c-7
-2 -19 -2 -25 0 -7 3 -2 5 12 5 14 0 19 -2 13 -5z m-4030 -10 c-7 -2 -19 -2
-25 0 -7 3 -2 5 12 5 14 0 19 -2 13 -5z m4080 0 c-7 -2 -19 -2 -25 0 -7 3 -2
5 12 5 14 0 19 -2 13 -5z m-4140 -10 c-7 -2 -21 -2 -30 0 -10 3 -4 5 12 5 17
0 24 -2 18 -5z m4190 0 c-7 -2 -19 -2 -25 0 -7 3 -2 5 12 5 14 0 19 -2 13 -5z
m-4250 -10 c-7 -2 -19 -2 -25 0 -7 3 -2 5 12 5 14 0 19 -2 13 -5z m4300 0 c-7
-2 -19 -2 -25 0 -7 3 -2 5 12 5 14 0 19 -2 13 -5z m-8696 -35 c-3 -7 -5 -2 -5
12 0 14 2 19 5 13 2 -7 2 -19 0 -25z m4336 25 c-7 -2 -19 -2 -25 0 -7 3 -2 5
12 5 14 0 19 -2 13 -5z m4404 1 c-3 -3 -12 -4 -19 -1 -8 3 -5 6 6 6 11 1 17
-2 13 -5z m-4464 -11 c-7 -2 -19 -2 -25 0 -7 3 -2 5 12 5 14 0 19 -2 13 -5z
m4537 -3 c20 -6 21 -8 5 -8 -11 0 -31 4 -45 8 -20 6 -21 8 -5 8 11 0 31 -4 45
-8z m-4597 -7 c-7 -2 -19 -2 -25 0 -7 3 -2 5 12 5 14 0 19 -2 13 -5z m-56 -9
c-3 -3 -12 -4 -19 -1 -8 3 -5 6 6 6 11 1 17 -2 13 -5z m4710 0 c-3 -3 -12 -4
-19 -1 -8 3 -5 6 6 6 11 1 17 -2 13 -5z m-4764 -11 c-7 -2 -19 -2 -25 0 -7 3
-2 5 12 5 14 0 19 -2 13 -5z m4804 1 c-3 -3 -12 -4 -19 -1 -8 3 -5 6 6 6 11 1
17 -2 13 -5z m6787 -68 c-9 -37 -18 -65 -21 -63 -2 3 4 34 13 71 9 37 18 65
21 63 2 -3 -4 -34 -13 -71z m-15687 42 c-3 -8 -6 -5 -6 6 -1 11 2 17 5 13 3
-3 4 -12 1 -19z m8940 16 c-3 -3 -12 -4 -19 -1 -8 3 -5 6 6 6 11 1 17 -2 13
-5z m-4950 -10 c-3 -3 -12 -4 -19 -1 -8 3 -5 6 6 6 11 1 17 -2 13 -5z m4990 0
c-3 -3 -12 -4 -19 -1 -8 3 -5 6 6 6 11 1 17 -2 13 -5z m-5040 -10 c-3 -3 -12
-4 -19 -1 -8 3 -5 6 6 6 11 1 17 -2 13 -5z m5108 -4 c25 -11 -1 -11 -35 0 -20
6 -21 8 -5 8 11 0 29 -3 40 -8z m-9038 -32 c-3 -8 -6 -5 -6 6 -1 11 2 17 5 13
3 -3 4 -12 1 -19z m9090 16 c-3 -3 -12 -4 -19 -1 -8 3 -5 6 6 6 11 1 17 -2 13
-5z m-5300 -10 c-3 -3 -12 -4 -19 -1 -8 3 -5 6 6 6 11 1 17 -2 13 -5z m5340 0
c-3 -3 -12 -4 -19 -1 -8 3 -5 6 6 6 11 1 17 -2 13 -5z m-5390 -10 c-3 -3 -12
-4 -19 -1 -8 3 -5 6 6 6 11 1 17 -2 13 -5z m5448 -4 c13 -5 14 -9 5 -9 -8 0
-24 4 -35 9 -13 5 -14 9 -5 9 8 0 24 -4 35 -9z m-5488 -6 c-3 -3 -12 -4 -19
-1 -8 3 -5 6 6 6 11 1 17 -2 13 -5z m-3690 -26 c-3 -8 -6 -5 -6 6 -1 11 2 17
5 13 3 -3 4 -12 1 -19z m3650 16 c-3 -3 -12 -4 -19 -1 -8 3 -5 6 6 6 11 1 17
-2 13 -5z m5580 0 c-3 -3 -12 -4 -19 -1 -8 3 -5 6 6 6 11 1 17 -2 13 -5z m88
-24 c13 -5 14 -9 5 -9 -8 0 -24 4 -35 9 -13 5 -14 9 -5 9 8 0 24 -4 35 -9z
m-9308 -42 c-3 -7 -5 -2 -5 12 0 14 2 19 5 13 2 -7 2 -19 0 -25z m9378 22 c13
-5 14 -9 5 -9 -8 0 -24 4 -35 9 -13 5 -14 9 -5 9 8 0 24 -4 35 -9z m6252 -32
c-3 -8 -6 -5 -6 6 -1 11 2 17 5 13 3 -3 4 -12 1 -19z m-6122 -8 c13 -5 14 -9
5 -9 -8 0 -24 4 -35 9 -13 5 -14 9 -5 9 8 0 24 -4 35 -9z m-9498 -22 c-3 -8
-6 -5 -6 6 -1 11 2 17 5 13 3 -3 4 -12 1 -19z m9558 2 c13 -6 15 -9 5 -9 -8 0
-22 4 -30 9 -18 12 -2 12 25 0z m6044 -44 c-6 -26 -13 -45 -16 -43 -2 3 1 26
8 51 6 26 13 45 16 43 2 -3 -1 -26 -8 -51z m-12321 4 c-42 -35 -99 -117 -128
-186 -14 -32 -19 -39 -15 -19 16 77 71 163 137 211 45 34 50 30 6 -6z m-3271
-2 c-3 -8 -6 -5 -6 6 -1 11 2 17 5 13 3 -3 4 -12 1 -19z m9638 12 c13 -6 15
-9 5 -9 -8 0 -22 4 -30 9 -18 12 -2 12 25 0z m103 -35 c29 -9 52 -19 49 -21
-5 -5 -127 36 -127 43 0 3 6 3 13 1 6 -3 36 -13 65 -23z m-9719 -45 c0 -9 -4
-8 -9 5 -5 11 -9 27 -9 35 0 9 4 8 9 -5 5 -11 9 -27 9 -35z m9871 -12 c10 -6
7 -7 -10 -2 -14 3 -32 11 -40 16 -10 6 -7 7 10 2 14 -3 32 -11 40 -16z m5677
0 c-3 -8 -6 -5 -6 6 -1 11 2 17 5 13 3 -3 4 -12 1 -19z m-15528 -58 c0 -9 -4
-8 -9 5 -5 11 -9 27 -9 35 0 9 4 8 9 -5 5 -11 9 -27 9 -35z m9931 28 c10 -6 7
-7 -10 -2 -14 3 -32 11 -40 16 -10 6 -7 7 10 2 14 -3 32 -11 40 -16z m50 -18
c8 -5 11 -10 5 -10 -5 0 -17 5 -25 10 -8 5 -10 10 -5 10 6 0 17 -5 25 -10z
m5524 -34 c-3 -15 -8 -25 -11 -23 -2 3 -1 17 3 31 3 15 8 25 11 23 2 -3 1 -17
-3 -31z m-5454 8 c23 -9 39 -18 37 -20 -2 -3 -24 4 -48 15 -54 24 -45 27 11 5z
m-10031 -49 c0 -5 -4 -3 -9 5 -5 8 -9 22 -9 30 0 16 17 -16 18 -35z m10111 15
c8 -5 11 -10 5 -10 -5 0 -17 5 -25 10 -8 5 -10 10 -5 10 6 0 17 -5 25 -10z
m50 -20 c8 -5 11 -10 5 -10 -5 0 -17 5 -25 10 -8 5 -10 10 -5 10 6 0 17 -5 25
-10z m-10132 -90 c0 -8 -6 1 -13 20 -7 19 -13 42 -13 50 0 8 6 -1 13 -20 7
-19 13 -42 13 -50z m10192 65 c14 -8 21 -14 15 -14 -5 0 -21 6 -35 14 -14 8
-20 14 -15 14 6 0 21 -6 35 -14z m5224 -59 c-10 -31 -19 -54 -22 -52 -2 2 4
29 14 60 10 31 19 54 22 52 2 -2 -4 -29 -14 -60z m-12387 22 c-3 -8 -6 -5 -6
6 -1 11 2 17 5 13 3 -3 4 -12 1 -19z m7243 2 c19 -11 31 -19 25 -19 -5 0 -26
8 -45 19 -19 11 -30 19 -25 19 6 0 26 -8 45 -19z m100 -45 c25 -13 41 -24 35
-24 -5 0 -30 11 -55 24 -25 13 -40 24 -35 24 6 0 30 -11 55 -24z m-10351 -45
c0 -10 -3 -8 -9 5 -12 27 -12 43 0 25 5 -8 9 -22 9 -30z m10561 -55 c83 -41
150 -77 150 -80 0 -5 -299 142 -309 151 -15 14 27 -5 159 -71z m-10541 -5 c0
-10 -3 -8 -9 5 -12 27 -12 43 0 25 5 -8 9 -22 9 -30z m15332 -1 c-5 -13 -10
-19 -10 -12 -1 15 10 45 15 40 3 -2 0 -15 -5 -28z m-15312 -59 c0 -10 -3 -8
-9 5 -12 27 -12 43 0 25 5 -8 9 -22 9 -30z m15275 -54 c-9 -26 -18 -45 -20
-43 -2 2 3 25 12 51 9 26 18 45 20 43 2 -2 -3 -25 -12 -51z m-12250 -86 c32
-60 78 -111 139 -157 72 -53 60 -57 -16 -5 -88 59 -156 159 -171 252 -5 32 -4
31 12 -10 9 -25 26 -61 36 -80z m7796 45 c0 -3 -27 8 -60 25 -33 17 -60 33
-60 35 0 3 27 -8 60 -25 33 -17 60 -33 60 -35z m-4251 50 c-3 -2 -117 -5 -255
-6 -396 -4 -652 -14 -1044 -44 -36 -3 -60 -3 -55 -1 20 9 332 36 490 42 88 4
162 8 164 10 6 6 705 5 700 -1z m-6540 -45 c0 -10 -3 -8 -9 5 -12 27 -12 43 0
25 5 -8 9 -22 9 -30z m5149 -17 c-10 -2 -26 -2 -35 0 -10 3 -2 5 17 5 19 0 27
-2 18 -5z m2315 0 c-7 -2 -19 -2 -25 0 -7 3 -2 5 12 5 14 0 19 -2 13 -5z
m3482 -76 c6 -6 -21 7 -60 28 -38 21 -74 42 -80 48 -5 6 22 -7 60 -28 39 -21
75 -42 80 -48z m-10921 23 c5 -17 4 -20 -2 -10 -5 8 -13 26 -16 40 -5 17 -4
20 2 10 5 -8 13 -26 16 -40z m5054 43 c-10 -2 -26 -2 -35 0 -10 3 -2 5 17 5
19 0 27 -2 18 -5z m2475 0 c-7 -2 -19 -2 -25 0 -7 3 -2 5 12 5 14 0 19 -2 13
-5z m7657 -30 c-11 -17 -11 -17 -6 0 3 10 6 24 7 30 0 9 2 9 5 0 3 -7 0 -20
-6 -30z m-10202 20 c-10 -2 -26 -2 -35 0 -10 3 -2 5 17 5 19 0 27 -2 18 -5z
m2635 0 c-7 -2 -21 -2 -30 0 -10 3 -4 5 12 5 17 0 24 -2 18 -5z m-2705 -10
c-10 -2 -26 -2 -35 0 -10 3 -2 5 17 5 19 0 27 -2 18 -5z m2780 0 c-10 -2 -26
-2 -35 0 -10 3 -2 5 17 5 19 0 27 -2 18 -5z m-2855 -10 c-7 -2 -21 -2 -30 0
-10 3 -4 5 12 5 17 0 24 -2 18 -5z m2925 0 c-10 -2 -26 -2 -35 0 -10 3 -2 5
17 5 19 0 27 -2 18 -5z m-2990 -10 c-10 -2 -26 -2 -35 0 -10 3 -2 5 17 5 19 0
27 -2 18 -5z m3167 -13 c158 -26 336 -62 332 -67 -3 -3 -96 13 -442 76 -27 5
-41 9 -30 10 11 0 74 -8 140 -19z m-3237 3 c-10 -2 -26 -2 -35 0 -10 3 -2 5
17 5 19 0 27 -2 18 -5z m-65 -10 c-7 -2 -21 -2 -30 0 -10 3 -4 5 12 5 17 0 24
-2 18 -5z m-65 -10 c-10 -2 -26 -2 -35 0 -10 3 -2 5 17 5 19 0 27 -2 18 -5z
m-4549 -48 c0 -5 -4 -3 -9 5 -5 8 -9 22 -9 30 0 16 17 -16 18 -35z m4484 38
c-7 -2 -21 -2 -30 0 -10 3 -4 5 12 5 17 0 24 -2 18 -5z m6522 -48 c11 -9 -2
-4 -30 11 -27 15 -54 32 -60 37 -16 15 68 -29 90 -48z m-6587 38 c-10 -2 -26
-2 -35 0 -10 3 -2 5 17 5 19 0 27 -2 18 -5z m10706 -47 c-9 -26 -18 -45 -20
-43 -2 2 3 25 12 51 9 26 18 45 20 43 2 -2 -3 -25 -12 -51z m-10771 37 c-7 -2
-21 -2 -30 0 -10 3 -4 5 12 5 17 0 24 -2 18 -5z m-60 -10 c-7 -2 -21 -2 -30 0
-10 3 -4 5 12 5 17 0 24 -2 18 -5z m-60 -10 c-7 -2 -21 -2 -30 0 -10 3 -4 5
12 5 17 0 24 -2 18 -5z m-60 -10 c-7 -2 -21 -2 -30 0 -10 3 -4 5 12 5 17 0 24
-2 18 -5z m4147 -3 c20 -6 21 -8 5 -8 -11 0 -31 4 -45 8 -20 6 -21 8 -5 8 11
0 31 -4 45 -8z m-4207 -7 c-7 -2 -19 -2 -25 0 -7 3 -2 5 12 5 14 0 19 -2 13
-5z m-50 -10 c-7 -2 -21 -2 -30 0 -10 3 -4 5 12 5 17 0 24 -2 18 -5z m4314 1
c-3 -3 -12 -4 -19 -1 -8 3 -5 6 6 6 11 1 17 -2 13 -5z m2786 -84 c48 -42 127
-151 127 -173 0 -6 -16 16 -36 49 -46 76 -95 127 -166 170 -32 20 -58 38 -58
40 0 11 86 -45 133 -86z m-7160 73 c-7 -2 -19 -2 -25 0 -7 3 -2 5 12 5 14 0
19 -2 13 -5z m4414 1 c-3 -3 -12 -4 -19 -1 -8 3 -5 6 6 6 11 1 17 -2 13 -5z
m-8343 -146 c4 -13 -7 5 -23 39 -16 34 -32 72 -35 85 -4 13 7 -5 23 -39 16
-34 32 -72 35 -85z m3879 135 c-7 -2 -19 -2 -25 0 -7 3 -2 5 12 5 14 0 19 -2
13 -5z m4510 0 c-7 -2 -19 -2 -25 0 -7 3 -2 5 12 5 14 0 19 -2 13 -5z m-4560
-10 c-7 -2 -19 -2 -25 0 -7 3 -2 5 12 5 14 0 19 -2 13 -5z m-50 -10 c-7 -2
-19 -2 -25 0 -7 3 -2 5 12 5 14 0 19 -2 13 -5z m-50 -10 c-7 -2 -19 -2 -25 0
-7 3 -2 5 12 5 14 0 19 -2 13 -5z m11288 -20 c-12 -20 -14 -14 -5 12 4 9 9 14
11 11 3 -2 0 -13 -6 -23z m-11351 7 c-14 -4 -34 -8 -45 -8 -16 0 -15 2 5 8 14
4 34 8 45 8 16 0 15 -2 -5 -8z m4877 4 c-3 -3 -12 -4 -19 -1 -8 3 -5 6 6 6 11
1 17 -2 13 -5z m-4954 -21 c-7 -2 -19 -2 -25 0 -7 3 -2 5 12 5 14 0 19 -2 13
-5z m-50 -10 c-7 -2 -19 -2 -25 0 -7 3 -2 5 12 5 14 0 19 -2 13 -5z m-60 -10
c-7 -2 -19 -2 -25 0 -7 3 -2 5 12 5 14 0 19 -2 13 -5z m11516 -32 c-6 -18 -13
-30 -15 -28 -2 2 1 18 7 36 6 18 13 30 15 28 2 -2 -1 -18 -7 -36z m-11582 23
c-3 -3 -12 -4 -19 -1 -8 3 -5 6 6 6 11 1 17 -2 13 -5z m11549 -101 c-8 -15
-15 -25 -16 -21 0 12 23 58 27 54 3 -2 -2 -17 -11 -33z m-14900 -110 c-4 -4
-46 92 -45 104 0 4 11 -16 25 -46 13 -30 23 -56 20 -58z m14865 34 c-11 -19
-21 -43 -22 -53 0 -13 -2 -15 -6 -5 -6 14 37 104 45 96 2 -2 -5 -19 -17 -38z
m-3692 -27 c0 -10 -3 -8 -9 5 -12 27 -12 43 0 25 5 -8 9 -22 9 -30z m-11130
-95 c0 -5 -8 6 -19 25 -11 19 -19 40 -19 45 0 6 8 -6 19 -25 11 -19 19 -39 19
-45z m11138 53 c-3 -8 -6 -5 -6 6 -1 11 2 17 5 13 3 -3 4 -12 1 -19z m3643
-45 c-11 -17 -11 -17 -6 0 3 10 6 24 7 30 0 9 2 9 5 0 3 -7 0 -20 -6 -30z
m-3633 -40 c-2 -16 -4 -5 -4 22 0 28 2 40 4 28 2 -13 2 -35 0 -50z m-11118
-38 c0 -5 -6 1 -14 15 -8 14 -14 30 -14 35 0 6 6 -1 14 -15 8 -14 14 -29 14
-35z m9486 37 c-3 -3 -11 0 -18 7 -9 10 -8 11 6 5 10 -3 15 -9 12 -12z m5236
-29 c-11 -21 -20 -35 -21 -31 0 12 33 78 38 74 2 -2 -6 -21 -17 -43z m-5151
-3 c8 -5 11 -10 5 -10 -5 0 -17 5 -25 10 -8 5 -10 10 -5 10 6 0 17 -5 25 -10z
m1547 -52 c-2 -13 -4 -5 -4 17 -1 22 1 32 4 23 2 -10 2 -28 0 -40z m-11048
-103 c0 -5 -15 19 -34 55 -19 36 -34 70 -34 75 0 6 15 -19 34 -55 19 -36 34
-69 34 -75z m9661 80 c36 -19 61 -34 55 -34 -5 0 -39 15 -75 34 -36 19 -60 34
-55 34 6 0 39 -15 75 -34z m4958 10 c-6 -14 -13 -23 -15 -21 -5 5 15 46 22 46
3 0 -1 -11 -7 -25z m-3583 -55 c-9 -41 -17 -33 -9 9 4 17 9 30 11 27 3 -2 2
-19 -2 -36z m3548 -15 c-9 -19 -18 -33 -21 -31 -4 5 26 66 33 66 3 0 -3 -16
-12 -35z m-4633 -90 c0 -3 -49 20 -110 50 -60 30 -110 57 -110 60 0 3 50 -20
110 -50 61 -30 110 -57 110 -60z m1038 -6 c-18 -35 -56 -86 -83 -115 -46 -47
-146 -114 -170 -114 -5 0 17 15 49 33 79 42 155 120 197 200 18 36 35 64 37
62 2 -2 -11 -32 -30 -66z m-10934 -36 c25 -51 44 -93 41 -93 -5 0 -95 176 -95
186 0 13 7 1 54 -93z m14471 17 c-19 -38 -38 -70 -40 -70 -3 0 11 32 30 70 19
39 38 70 40 70 3 0 -11 -31 -30 -70z m-4380 -82 c6 -6 -30 11 -80 37 -49 26
-94 53 -100 58 -5 6 31 -11 80 -37 50 -27 95 -53 100 -58z m4326 -21 c-10 -9
-11 -8 -5 6 3 10 9 15 12 12 3 -3 0 -11 -7 -18z m-4037 -126 c-5 -5 -274 126
-274 133 0 3 62 -25 139 -62 76 -37 137 -69 135 -71z m-10320 93 c3 -8 2 -12
-4 -9 -6 3 -10 10 -10 16 0 14 7 11 14 -7z m14326 -24 c-11 -22 -23 -40 -25
-40 -3 0 4 18 15 40 11 22 23 40 25 40 3 0 -4 -18 -15 -40z m-14250 -115 c29
-55 48 -95 42 -90 -6 6 -34 55 -63 110 -28 55 -48 96 -42 90 5 -5 34 -55 63
-110z m14200 25 c-11 -22 -23 -40 -25 -40 -3 0 4 18 15 40 11 22 23 40 25 40
3 0 -4 -18 -15 -40z m-3703 24 c-3 -3 -12 -4 -19 -1 -8 3 -5 6 6 6 11 1 17 -2
13 -5z m-189 -11 c-10 -2 -26 -2 -35 0 -10 3 -2 5 17 5 19 0 27 -2 18 -5z
m145 0 c-7 -2 -21 -2 -30 0 -10 3 -4 5 12 5 17 0 24 -2 18 -5z m3706 -85 c-33
-63 -101 -178 -106 -178 -3 0 6 19 20 43 13 23 39 68 57 100 30 54 54 83 29
35z m-14084 -88 c9 -16 13 -30 11 -30 -3 0 -12 14 -21 30 -9 17 -13 30 -11 30
3 0 12 -13 21 -30z m51 -87 c110 -190 312 -490 483 -718 265 -353 474 -590
839 -955 163 -162 267 -268 231 -236 -191 177 -460 449 -608 616 -46 52 -98
111 -115 130 -127 141 -376 462 -530 683 -136 196 -346 527 -333 527 3 0 18
-21 33 -47z m13913 -35 c-22 -42 -82 -138 -86 -138 -3 0 5 17 18 38 12 20 33
56 46 80 26 43 43 59 22 20z m-103 -175 c-8 -16 -22 -37 -31 -48 -16 -19 -17
-19 -3 5 8 14 20 35 27 48 6 12 14 22 17 22 2 0 -2 -12 -10 -27z m-55 -92
c-24 -44 -205 -307 -300 -436 -214 -289 -448 -560 -713 -827 -112 -112 -140
-139 -62 -59 431 446 720 798 987 1204 83 125 114 167 88 118z m-1231 -1475
c0 -7 -120 -120 -230 -216 -150 -131 -410 -339 -587 -469 -138 -101 -459 -318
-508 -343 -45 -24 10 15 177 125 207 135 445 308 644 469 157 126 398 334 459
397 38 40 45 46 45 37z m-10567 -470 c59 -48 107 -90 107 -92 0 -12 -425 345
-434 364 -3 7 45 -31 107 -85 61 -54 160 -138 220 -187z m272 -210 c127 -94
188 -146 95 -81 -83 59 -250 187 -250 192 0 2 8 -2 18 -9 9 -7 71 -53 137
-102z m215 -162 c0 -3 -13 4 -30 16 -16 12 -30 24 -30 26 0 3 14 -4 30 -16 17
-12 30 -24 30 -26z m205 -137 c15 -15 -10 0 -107 65 -49 32 -88 61 -88 64 0 5
179 -113 195 -129z m140 -90 c12 -13 -2 -4 -72 40 -29 19 -53 36 -53 39 0 6
111 -64 125 -79z m8385 29 c0 -5 -77 -53 -145 -92 -78 -43 -45 -17 52 42 94
57 93 56 93 50z m-8269 -99 c13 -10 6 -8 -17 5 -22 13 -52 31 -65 41 -13 10
-6 8 17 -5 22 -13 52 -31 65 -41z m89 -53 c0 -2 -13 2 -30 11 -16 9 -30 18
-30 21 0 2 14 -2 30 -11 17 -9 30 -18 30 -21z m7975 27 c-15 -14 -248 -142
-251 -138 -3 3 245 146 256 147 2 0 0 -4 -5 -9z m-7840 -104 c15 -14 -87 39
-110 58 -11 9 7 1 40 -16 33 -18 65 -37 70 -42z m115 -62 c0 -3 -22 6 -50 20
-27 14 -50 28 -50 30 0 3 23 -6 50 -20 28 -14 50 -28 50 -30z m7460 20 c0 -3
-40 -25 -90 -50 -49 -25 -90 -43 -90 -40 0 4 166 92 178 94 1 1 2 -1 2 -4z
m-7144 -183 c-5 -4 -306 146 -306 153 0 3 70 -30 155 -72 85 -43 153 -79 151
-81z m6884 48 c-41 -21 -79 -39 -85 -39 -5 0 24 18 65 39 41 21 80 39 85 39 6
0 -24 -18 -65 -39z m-104 -49 c-6 -9 -46 -22 -46 -15 0 3 10 9 23 14 29 11 29
11 23 1z m-6741 -11 c3 -6 -1 -7 -9 -4 -18 7 -21 14 -7 14 6 0 13 -4 16 -10z
m55 -25 c14 -8 21 -14 15 -14 -5 0 -21 6 -35 14 -14 8 -20 14 -15 14 6 0 21
-6 35 -14z m6610 0 c-14 -8 -29 -14 -35 -14 -5 0 1 6 15 14 14 8 30 14 35 14
6 0 -1 -6 -15 -14z m-80 -35 c-19 -11 -39 -19 -45 -19 -5 0 6 8 25 19 19 11
40 19 45 19 6 0 -6 -8 -25 -19z m-6440 -5 c14 -8 21 -14 15 -14 -5 0 -21 6
-35 14 -14 8 -20 14 -15 14 6 0 21 -6 35 -14z m70 -30 c14 -8 21 -14 15 -14
-5 0 -21 6 -35 14 -14 8 -20 14 -15 14 6 0 21 -6 35 -14z m6265 -10 c-27 -13
-54 -24 -60 -24 -5 1 13 11 40 24 28 13 55 24 60 24 6 -1 -12 -11 -40 -24z
m-6195 -20 c14 -8 21 -14 15 -14 -5 0 -21 6 -35 14 -14 8 -20 14 -15 14 6 0
21 -6 35 -14z m6100 -20 c-14 -8 -29 -14 -35 -14 -5 0 1 6 15 14 14 8 30 14
35 14 6 0 -1 -6 -15 -14z m-6010 -17 c10 -6 7 -7 -10 -2 -14 3 -32 11 -40 16
-10 6 -7 7 10 2 14 -3 32 -11 40 -16z m50 -18 c8 -5 11 -10 5 -10 -5 0 -17 5
-25 10 -8 5 -10 10 -5 10 6 0 17 -5 25 -10z m5870 0 c-8 -5 -19 -10 -25 -10
-5 0 -3 5 5 10 8 5 20 10 25 10 6 0 3 -5 -5 -10z m-5790 -32 c10 -6 7 -7 -10
-2 -14 3 -32 11 -40 16 -10 6 -7 7 10 2 14 -3 32 -11 40 -16z m5740 12 c-8 -5
-19 -10 -25 -10 -5 0 -3 5 5 10 8 5 20 10 25 10 6 0 3 -5 -5 -10z m-40 -14 c0
-6 -93 -37 -97 -32 -2 2 15 11 39 19 47 17 58 19 58 13z m-5528 -56 c46 -16
78 -29 72 -29 -13 -1 -185 57 -193 65 -7 8 11 2 121 -36z m5386 5 c-7 -8 -210
-75 -222 -74 -11 1 201 77 218 78 5 1 7 -1 4 -4z m-5193 -65 c13 -5 14 -9 5
-9 -8 0 -24 4 -35 9 -13 5 -14 9 -5 9 8 0 24 -4 35 -9z m70 -20 c13 -5 14 -9
5 -9 -8 0 -24 4 -35 9 -13 5 -14 9 -5 9 8 0 24 -4 35 -9z m4840 -10 c-11 -5
-27 -9 -35 -9 -9 0 -8 4 5 9 11 5 27 9 35 9 9 0 8 -4 -5 -9z m-4765 -10 c20
-6 21 -8 5 -8 -11 0 -29 3 -40 8 -25 11 1 11 35 0z m4677 -16 c-3 -3 -12 -4
-19 -1 -8 3 -5 6 6 6 11 1 17 -2 13 -5z m-4590 -10 c-3 -3 -12 -4 -19 -1 -8 3
-5 6 6 6 11 1 17 -2 13 -5z m4538 -4 c-11 -5 -27 -9 -35 -9 -9 0 -8 4 5 9 11
5 27 9 35 9 9 0 8 -4 -5 -9z m-4498 -6 c-3 -3 -12 -4 -19 -1 -8 3 -5 6 6 6 11
1 17 -2 13 -5z m58 -14 c13 -5 14 -9 5 -9 -8 0 -24 4 -35 9 -13 5 -14 9 -5 9
8 0 24 -4 35 -9z m4370 0 c-11 -5 -27 -9 -35 -9 -9 0 -8 4 5 9 11 5 27 9 35 9
9 0 8 -4 -5 -9z m-4312 -17 c-7 -2 -19 -2 -25 0 -7 3 -2 5 12 5 14 0 19 -2 13
-5z m4254 1 c-3 -3 -12 -4 -19 -1 -8 3 -5 6 6 6 11 1 17 -2 13 -5z m-52 -14
c-11 -5 -27 -9 -35 -9 -9 0 -8 4 5 9 11 5 27 9 35 9 9 0 8 -4 -5 -9z m-4128
-6 c-3 -3 -12 -4 -19 -1 -8 3 -5 6 6 6 11 1 17 -2 13 -5z m63 -14 c20 -6 21
-8 5 -8 -11 0 -29 3 -40 8 -25 11 1 11 35 0z m4007 4 c-3 -3 -12 -4 -19 -1 -8
3 -5 6 6 6 11 1 17 -2 13 -5z m-38 -8 c-7 -7 -131 -37 -136 -33 -2 3 22 11 54
20 59 15 90 20 82 13z m-3912 -12 c-3 -3 -12 -4 -19 -1 -8 3 -5 6 6 6 11 1 17
-2 13 -5z m63 -14 c20 -6 21 -8 5 -8 -11 0 -29 3 -40 8 -25 11 1 11 35 0z m57
-16 c-3 -3 -12 -4 -19 -1 -8 3 -5 6 6 6 11 1 17 -2 13 -5z m3636 -1 c-7 -2
-19 -2 -25 0 -7 3 -2 5 12 5 14 0 19 -2 13 -5z m-3596 -9 c-3 -3 -12 -4 -19
-1 -8 3 -5 6 6 6 11 1 17 -2 13 -5z m3550 0 c-3 -3 -12 -4 -19 -1 -8 3 -5 6 6
6 11 1 17 -2 13 -5z m-3504 -11 c-7 -2 -19 -2 -25 0 -7 3 -2 5 12 5 14 0 19
-2 13 -5z m3464 1 c-3 -3 -12 -4 -19 -1 -8 3 -5 6 6 6 11 1 17 -2 13 -5z
m-3414 -11 c-7 -2 -19 -2 -25 0 -7 3 -2 5 12 5 14 0 19 -2 13 -5z m3370 0 c-7
-2 -19 -2 -25 0 -7 3 -2 5 12 5 14 0 19 -2 13 -5z m-3320 -10 c-7 -2 -19 -2
-25 0 -7 3 -2 5 12 5 14 0 19 -2 13 -5z m3257 -3 c-14 -4 -34 -8 -45 -8 -16 0
-15 2 5 8 14 4 34 8 45 8 16 0 15 -2 -5 -8z m-3207 -7 c-7 -2 -19 -2 -25 0 -7
3 -2 5 12 5 14 0 19 -2 13 -5z m50 -10 c-7 -2 -19 -2 -25 0 -7 3 -2 5 12 5 14
0 19 -2 13 -5z m3080 0 c-7 -2 -21 -2 -30 0 -10 3 -4 5 12 5 17 0 24 -2 18 -5z
m-3020 -10 c-7 -2 -21 -2 -30 0 -10 3 -4 5 12 5 17 0 24 -2 18 -5z m2960 0
c-7 -2 -19 -2 -25 0 -7 3 -2 5 12 5 14 0 19 -2 13 -5z m-2910 -10 c-7 -2 -19
-2 -25 0 -7 3 -2 5 12 5 14 0 19 -2 13 -5z m2860 0 c-7 -2 -19 -2 -25 0 -7 3
-2 5 12 5 14 0 19 -2 13 -5z m-2795 -10 c-10 -2 -26 -2 -35 0 -10 3 -2 5 17 5
19 0 27 -2 18 -5z m2745 0 c-7 -2 -21 -2 -30 0 -10 3 -4 5 12 5 17 0 24 -2 18
-5z m-2680 -10 c-7 -2 -21 -2 -30 0 -10 3 -4 5 12 5 17 0 24 -2 18 -5z m2620
0 c-7 -2 -21 -2 -30 0 -10 3 -4 5 12 5 17 0 24 -2 18 -5z m-2555 -10 c-10 -2
-26 -2 -35 0 -10 3 -2 5 17 5 19 0 27 -2 18 -5z m2485 0 c-7 -2 -21 -2 -30 0
-10 3 -4 5 12 5 17 0 24 -2 18 -5z m-2415 -10 c-10 -2 -26 -2 -35 0 -10 3 -2
5 17 5 19 0 27 -2 18 -5z m2350 0 c-10 -2 -26 -2 -35 0 -10 3 -2 5 17 5 19 0
27 -2 18 -5z m-2270 -10 c-10 -2 -28 -2 -40 0 -13 2 -5 4 17 4 22 1 32 -1 23
-4z m2200 0 c-10 -2 -28 -2 -40 0 -13 2 -5 4 17 4 22 1 32 -1 23 -4z m-2120
-10 c-10 -2 -28 -2 -40 0 -13 2 -5 4 17 4 22 1 32 -1 23 -4z m2040 0 c-10 -2
-28 -2 -40 0 -13 2 -5 4 17 4 22 1 32 -1 23 -4z m-1950 -10 c-10 -2 -28 -2
-40 0 -13 2 -5 4 17 4 22 1 32 -1 23 -4z m1860 0 c-10 -2 -28 -2 -40 0 -13 2
-5 4 17 4 22 1 32 -1 23 -4z m-1755 -10 c-13 -2 -35 -2 -50 0 -16 2 -5 4 22 4
28 0 40 -2 28 -4z m1660 0 c-13 -2 -33 -2 -45 0 -13 2 -3 4 22 4 25 0 35 -2
23 -4z m-1540 -10 c-13 -2 -35 -2 -50 0 -16 2 -5 4 22 4 28 0 40 -2 28 -4z
m1435 0 c-15 -2 -42 -2 -60 0 -18 2 -6 4 27 4 33 0 48 -2 33 -4z m-1295 -10
c-18 -2 -48 -2 -65 0 -18 2 -4 4 32 4 36 0 50 -2 33 -4z m1165 0 c-15 -2 -42
-2 -60 0 -18 2 -6 4 27 4 33 0 48 -2 33 -4z m-975 -10 c-23 -2 -64 -2 -90 0
-26 2 -7 3 42 3 50 0 71 -1 48 -3z m790 0 c-24 -2 -62 -2 -85 0 -24 2 -5 4 42
4 47 0 66 -2 43 -4z m-325 -10 c-60 -2 -156 -2 -215 0 -60 1 -11 3 107 3 118
0 167 -2 108 -3z m139 1 c-3 -3 -12 -4 -19 -1 -8 3 -5 6 6 6 11 1 17 -2 13 -5z"/>
</g>
</svg>
